<?xml version="1.0" encoding="utf-8"?>
<!-- Generator: Adobe Illustrator 24.1.0, SVG Export Plug-In . SVG Version: 6.00 Build 0)  -->
<svg version="1.1" id="Ebene_1" shape-rendering="auto"
	 xmlns="http://www.w3.org/2000/svg" xmlns:xlink="http://www.w3.org/1999/xlink" x="0px" y="0px" viewBox="0 0 100 100"
	 style="enable-background:new 0 0 100 100;" xml:space="preserve">
<style type="text/css">
	.st0{fill:#FFFFFF;}
</style>
<rect x="-199" y="38" class="st0" width="100" height="100"/>
<rect x="38.8" y="10" width="3.2" height="3.2"/>
<rect x="54.8" y="10" width="3.2" height="3.2"/>
<rect x="61.2" y="10" width="3.2" height="3.2"/>
<rect x="35.6" y="13.2" width="3.2" height="3.2"/>
<rect x="38.8" y="13.2" width="3.2" height="3.2"/>
<rect x="45.2" y="13.2" width="3.2" height="3.2"/>
<rect x="48.4" y="13.2" width="3.2" height="3.2"/>
<rect x="51.6" y="13.2" width="3.2" height="3.2"/>
<rect x="54.8" y="13.2" width="3.2" height="3.2"/>
<rect x="38.8" y="16.4" width="3.2" height="3.2"/>
<rect x="42" y="16.4" width="3.2" height="3.2"/>
<rect x="45.2" y="16.4" width="3.2" height="3.2"/>
<rect x="35.6" y="19.6" width="3.2" height="3.2"/>
<rect x="38.8" y="19.6" width="3.2" height="3.2"/>
<rect x="45.2" y="19.6" width="3.2" height="3.2"/>
<rect x="51.6" y="19.6" width="3.2" height="3.2"/>
<rect x="58" y="19.6" width="3.2" height="3.2"/>
<rect x="61.2" y="19.6" width="3.2" height="3.2"/>
<rect x="42" y="22.8" width="3.2" height="3.2"/>
<rect x="48.4" y="22.8" width="3.2" height="3.2"/>
<rect x="58" y="22.8" width="3.2" height="3.2"/>
<rect x="61.2" y="22.8" width="3.2" height="3.2"/>
<rect x="35.6" y="26" width="3.2" height="3.2"/>
<rect x="42" y="26" width="3.2" height="3.2"/>
<rect x="51.6" y="26" width="3.2" height="3.2"/>
<rect x="54.8" y="26" width="3.2" height="3.2"/>
<rect x="58" y="26" width="3.2" height="3.2"/>
<rect x="35.6" y="29.2" width="3.2" height="3.2"/>
<rect x="42" y="29.2" width="3.2" height="3.2"/>
<rect x="48.4" y="29.2" width="3.2" height="3.2"/>
<rect x="54.8" y="29.2" width="3.2" height="3.2"/>
<rect x="61.2" y="29.2" width="3.2" height="3.2"/>
<rect x="48.4" y="32.4" width="3.2" height="3.2"/>
<rect x="61.2" y="32.4" width="3.2" height="3.2"/>
<rect x="10" y="35.6" width="3.2" height="3.2"/>
<rect x="13.2" y="35.6" width="3.2" height="3.2"/>
<rect x="16.4" y="35.6" width="3.2" height="3.2"/>
<rect x="19.6" y="35.6" width="3.2" height="3.2"/>
<rect x="22.8" y="35.6" width="3.2" height="3.2"/>
<rect x="29.2" y="35.6" width="3.2" height="3.2"/>
<rect x="32.4" y="35.6" width="3.2" height="3.2"/>
<rect x="35.6" y="35.6" width="3.2" height="3.2"/>
<rect x="38.8" y="35.6" width="3.2" height="3.2"/>
<rect x="42" y="35.6" width="3.2" height="3.2"/>
<rect x="48.4" y="35.6" width="3.2" height="3.2"/>
<rect x="51.6" y="35.6" width="3.2" height="3.2"/>
<rect x="58" y="35.6" width="3.2" height="3.2"/>
<rect x="64.4" y="35.6" width="3.2" height="3.2"/>
<rect x="70.8" y="35.6" width="3.2" height="3.2"/>
<rect x="77.2" y="35.6" width="3.2" height="3.2"/>
<rect x="83.6" y="35.6" width="3.2" height="3.2"/>
<rect x="13.2" y="38.8" width="3.2" height="3.2"/>
<rect x="19.6" y="38.8" width="3.2" height="3.2"/>
<rect x="22.8" y="38.8" width="3.2" height="3.2"/>
<rect x="26" y="38.8" width="3.2" height="3.2"/>
<rect x="32.4" y="38.8" width="3.2" height="3.2"/>
<rect x="35.6" y="38.8" width="3.2" height="3.2"/>
<rect x="38.8" y="38.8" width="3.2" height="3.2"/>
<rect x="58" y="38.8" width="3.2" height="3.2"/>
<rect x="61.2" y="38.8" width="3.2" height="3.2"/>
<rect x="64.4" y="38.8" width="3.2" height="3.2"/>
<rect x="70.8" y="38.8" width="3.2" height="3.2"/>
<rect x="74" y="38.8" width="3.2" height="3.2"/>
<rect x="86.8" y="38.8" width="3.2" height="3.2"/>
<rect x="26" y="42" width="3.2" height="3.2"/>
<rect x="29.2" y="42" width="3.2" height="3.2"/>
<rect x="32.4" y="42" width="3.2" height="3.2"/>
<rect x="35.6" y="42" width="3.2" height="3.2"/>
<rect x="38.8" y="42" width="3.2" height="3.2"/>
<rect x="45.2" y="42" width="3.2" height="3.2"/>
<rect x="48.4" y="42" width="3.2" height="3.2"/>
<rect x="51.6" y="42" width="3.2" height="3.2"/>
<rect x="54.8" y="42" width="3.2" height="3.2"/>
<rect x="58" y="42" width="3.2" height="3.2"/>
<rect x="64.4" y="42" width="3.2" height="3.2"/>
<rect x="67.6" y="42" width="3.2" height="3.2"/>
<rect x="74" y="42" width="3.2" height="3.2"/>
<rect x="80.4" y="42" width="3.2" height="3.2"/>
<rect x="13.2" y="45.2" width="3.2" height="3.2"/>
<rect x="16.4" y="45.2" width="3.2" height="3.2"/>
<rect x="32.4" y="45.2" width="3.2" height="3.2"/>
<rect x="35.6" y="45.2" width="3.2" height="3.2"/>
<rect x="38.8" y="45.2" width="3.2" height="3.2"/>
<rect x="42" y="45.2" width="3.2" height="3.2"/>
<rect x="45.2" y="45.2" width="3.2" height="3.2"/>
<rect x="61.2" y="45.2" width="3.2" height="3.2"/>
<rect x="64.4" y="45.2" width="3.2" height="3.2"/>
<rect x="10" y="48.4" width="3.2" height="3.2"/>
<rect x="13.2" y="48.4" width="3.2" height="3.2"/>
<rect x="16.4" y="48.4" width="3.2" height="3.2"/>
<rect x="29.2" y="48.4" width="3.2" height="3.2"/>
<rect x="32.4" y="48.4" width="3.2" height="3.2"/>
<rect x="38.8" y="48.4" width="3.2" height="3.2"/>
<rect x="45.2" y="48.4" width="3.2" height="3.2"/>
<rect x="54.8" y="48.4" width="3.2" height="3.2"/>
<rect x="58" y="48.4" width="3.2" height="3.2"/>
<rect x="67.6" y="48.4" width="3.2" height="3.2"/>
<rect x="70.8" y="48.4" width="3.2" height="3.2"/>
<rect x="74" y="48.4" width="3.2" height="3.2"/>
<rect x="77.2" y="48.4" width="3.2" height="3.2"/>
<rect x="83.6" y="48.4" width="3.2" height="3.2"/>
<rect x="86.8" y="48.4" width="3.2" height="3.2"/>
<rect x="10" y="51.6" width="3.2" height="3.2"/>
<rect x="13.2" y="51.6" width="3.2" height="3.2"/>
<rect x="16.4" y="51.6" width="3.2" height="3.2"/>
<rect x="19.6" y="51.6" width="3.2" height="3.2"/>
<rect x="22.8" y="51.6" width="3.2" height="3.2"/>
<rect x="32.4" y="51.6" width="3.2" height="3.2"/>
<rect x="38.8" y="51.6" width="3.2" height="3.2"/>
<rect x="42" y="51.6" width="3.2" height="3.2"/>
<rect x="48.4" y="51.6" width="3.2" height="3.2"/>
<rect x="61.2" y="51.6" width="3.2" height="3.2"/>
<rect x="64.4" y="51.6" width="3.2" height="3.2"/>
<rect x="67.6" y="51.6" width="3.2" height="3.2"/>
<rect x="70.8" y="51.6" width="3.2" height="3.2"/>
<rect x="74" y="51.6" width="3.2" height="3.2"/>
<rect x="10" y="54.8" width="3.2" height="3.2"/>
<rect x="22.8" y="54.8" width="3.2" height="3.2"/>
<rect x="26" y="54.8" width="3.2" height="3.2"/>
<rect x="29.2" y="54.8" width="3.2" height="3.2"/>
<rect x="35.6" y="54.8" width="3.2" height="3.2"/>
<rect x="38.8" y="54.8" width="3.2" height="3.2"/>
<rect x="42" y="54.8" width="3.2" height="3.2"/>
<rect x="51.6" y="54.8" width="3.2" height="3.2"/>
<rect x="54.8" y="54.8" width="3.2" height="3.2"/>
<rect x="64.4" y="54.8" width="3.2" height="3.2"/>
<rect x="67.6" y="54.8" width="3.2" height="3.2"/>
<rect x="74" y="54.8" width="3.2" height="3.2"/>
<rect x="80.4" y="54.8" width="3.2" height="3.2"/>
<rect x="83.6" y="54.8" width="3.2" height="3.2"/>
<rect x="86.8" y="54.8" width="3.2" height="3.2"/>
<rect x="10" y="58" width="3.2" height="3.2"/>
<rect x="32.4" y="58" width="3.2" height="3.2"/>
<rect x="35.6" y="58" width="3.2" height="3.2"/>
<rect x="42" y="58" width="3.2" height="3.2"/>
<rect x="48.4" y="58" width="3.2" height="3.2"/>
<rect x="64.4" y="58" width="3.2" height="3.2"/>
<rect x="83.6" y="58" width="3.2" height="3.2"/>
<rect x="86.8" y="58" width="3.2" height="3.2"/>
<rect x="10" y="61.2" width="3.2" height="3.2"/>
<rect x="16.4" y="61.2" width="3.2" height="3.2"/>
<rect x="19.6" y="61.2" width="3.2" height="3.2"/>
<rect x="29.2" y="61.2" width="3.2" height="3.2"/>
<rect x="32.4" y="61.2" width="3.2" height="3.2"/>
<rect x="38.8" y="61.2" width="3.2" height="3.2"/>
<rect x="48.4" y="61.2" width="3.2" height="3.2"/>
<rect x="51.6" y="61.2" width="3.2" height="3.2"/>
<rect x="58" y="61.2" width="3.2" height="3.2"/>
<rect x="61.2" y="61.2" width="3.2" height="3.2"/>
<rect x="64.4" y="61.2" width="3.2" height="3.2"/>
<rect x="67.6" y="61.2" width="3.2" height="3.2"/>
<rect x="70.8" y="61.2" width="3.2" height="3.2"/>
<rect x="74" y="61.2" width="3.2" height="3.2"/>
<rect x="77.2" y="61.2" width="3.2" height="3.2"/>
<rect x="86.8" y="61.2" width="3.2" height="3.2"/>
<rect x="35.6" y="64.4" width="3.2" height="3.2"/>
<rect x="38.8" y="64.4" width="3.2" height="3.2"/>
<rect x="54.8" y="64.4" width="3.2" height="3.2"/>
<rect x="61.2" y="64.4" width="3.2" height="3.2"/>
<rect x="74" y="64.4" width="3.2" height="3.2"/>
<rect x="86.8" y="64.4" width="3.2" height="3.2"/>
<rect x="35.6" y="67.6" width="3.2" height="3.2"/>
<rect x="38.8" y="67.6" width="3.2" height="3.2"/>
<rect x="42" y="67.6" width="3.2" height="3.2"/>
<rect x="45.2" y="67.6" width="3.2" height="3.2"/>
<rect x="48.4" y="67.6" width="3.2" height="3.2"/>
<rect x="54.8" y="67.6" width="3.2" height="3.2"/>
<rect x="61.2" y="67.6" width="3.2" height="3.2"/>
<rect x="67.6" y="67.6" width="3.2" height="3.2"/>
<rect x="74" y="67.6" width="3.2" height="3.2"/>
<rect x="80.4" y="67.6" width="3.2" height="3.2"/>
<rect x="83.6" y="67.6" width="3.2" height="3.2"/>
<rect x="86.8" y="67.6" width="3.2" height="3.2"/>
<rect x="38.8" y="70.8" width="3.2" height="3.2"/>
<rect x="45.2" y="70.8" width="3.2" height="3.2"/>
<rect x="51.6" y="70.8" width="3.2" height="3.2"/>
<rect x="61.2" y="70.8" width="3.2" height="3.2"/>
<rect x="74" y="70.8" width="3.2" height="3.2"/>
<rect x="77.2" y="70.8" width="3.2" height="3.2"/>
<rect x="35.6" y="74" width="3.2" height="3.2"/>
<rect x="38.8" y="74" width="3.2" height="3.2"/>
<rect x="45.2" y="74" width="3.2" height="3.2"/>
<rect x="48.4" y="74" width="3.2" height="3.2"/>
<rect x="61.2" y="74" width="3.2" height="3.2"/>
<rect x="64.4" y="74" width="3.2" height="3.2"/>
<rect x="67.6" y="74" width="3.2" height="3.2"/>
<rect x="70.8" y="74" width="3.2" height="3.2"/>
<rect x="74" y="74" width="3.2" height="3.2"/>
<rect x="77.2" y="74" width="3.2" height="3.2"/>
<rect x="35.6" y="77.2" width="3.2" height="3.2"/>
<rect x="38.8" y="77.2" width="3.2" height="3.2"/>
<rect x="42" y="77.2" width="3.2" height="3.2"/>
<rect x="48.4" y="77.2" width="3.2" height="3.2"/>
<rect x="54.8" y="77.2" width="3.2" height="3.2"/>
<rect x="58" y="77.2" width="3.2" height="3.2"/>
<rect x="61.2" y="77.2" width="3.2" height="3.2"/>
<rect x="67.6" y="77.2" width="3.2" height="3.2"/>
<rect x="74" y="77.2" width="3.2" height="3.2"/>
<rect x="83.6" y="77.2" width="3.2" height="3.2"/>
<rect x="86.8" y="77.2" width="3.2" height="3.2"/>
<rect x="35.6" y="80.4" width="3.2" height="3.2"/>
<rect x="38.8" y="80.4" width="3.2" height="3.2"/>
<rect x="42" y="80.4" width="3.2" height="3.2"/>
<rect x="48.4" y="80.4" width="3.2" height="3.2"/>
<rect x="51.6" y="80.4" width="3.2" height="3.2"/>
<rect x="74" y="80.4" width="3.2" height="3.2"/>
<rect x="80.4" y="80.4" width="3.2" height="3.2"/>
<rect x="86.8" y="80.4" width="3.2" height="3.2"/>
<rect x="35.6" y="83.6" width="3.2" height="3.2"/>
<rect x="48.4" y="83.6" width="3.2" height="3.2"/>
<rect x="54.8" y="83.6" width="3.2" height="3.2"/>
<rect x="61.2" y="83.6" width="3.2" height="3.2"/>
<rect x="64.4" y="83.6" width="3.2" height="3.2"/>
<rect x="67.6" y="83.6" width="3.2" height="3.2"/>
<rect x="70.8" y="83.6" width="3.2" height="3.2"/>
<rect x="74" y="83.6" width="3.2" height="3.2"/>
<rect x="77.2" y="83.6" width="3.2" height="3.2"/>
<rect x="83.6" y="83.6" width="3.2" height="3.2"/>
<rect x="35.6" y="86.8" width="3.2" height="3.2"/>
<rect x="42" y="86.8" width="3.2" height="3.2"/>
<rect x="48.4" y="86.8" width="3.2" height="3.2"/>
<rect x="51.6" y="86.8" width="3.2" height="3.2"/>
<rect x="54.8" y="86.8" width="3.2" height="3.2"/>
<rect x="58" y="86.8" width="3.2" height="3.2"/>
<rect x="80.4" y="86.8" width="3.2" height="3.2"/>
<rect x="83.6" y="86.8" width="3.2" height="3.2"/>
<rect x="86.8" y="86.8" width="3.2" height="3.2"/>
<path d="M10.7,10c-0.4,0-0.7,0.3-0.7,0.7v2.5v3.2v3.2v3.2V26v3.2v2.5c0,0.4,0.3,0.7,0.7,0.7h21c0.4,0,0.7-0.3,0.7-0.7v-2.5V26v-3.2
	v-3.2v-3.2v-3.2v-2.5c0-0.4-0.3-0.7-0.7-0.7C31.7,10,10.7,10,10.7,10z M29.2,16.4v3.2v3.2V26v2.8c0,0.2-0.2,0.4-0.4,0.4H13.6
	c-0.2,0-0.4-0.2-0.4-0.4V26v-3.2v-3.2v-3.2v-2.8c0-0.2,0.2-0.4,0.4-0.4h15.2c0.2,0,0.4,0.2,0.4,0.4V16.4z"/>
<path d="M26,22.8v-3.2v-2.5c0-0.4-0.3-0.7-0.7-0.7h-8.2c-0.4,0-0.7,0.3-0.7,0.7v2.5v3.2v2.5c0,0.4,0.3,0.7,0.7,0.7h8.2
	c0.4,0,0.7-0.3,0.7-0.7V22.8z"/>
<path d="M68.3,10c-0.4,0-0.7,0.3-0.7,0.7v2.5v3.2v3.2v3.2V26v3.2v2.5c0,0.4,0.3,0.7,0.7,0.7h21c0.4,0,0.7-0.3,0.7-0.7v-2.5V26v-3.2
	v-3.2v-3.2v-3.2v-2.5c0-0.4-0.3-0.7-0.7-0.7C89.3,10,68.3,10,68.3,10z M86.8,16.4v3.2v3.2V26v2.8c0,0.2-0.2,0.4-0.4,0.4H71.2
	c-0.2,0-0.4-0.2-0.4-0.4V26v-3.2v-3.2v-3.2v-2.8c0-0.2,0.2-0.4,0.4-0.4h15.2c0.2,0,0.4,0.2,0.4,0.4V16.4z"/>
<path d="M83.6,22.8v-3.2v-2.5c0-0.4-0.3-0.7-0.7-0.7h-8.2c-0.4,0-0.7,0.3-0.7,0.7v2.5v3.2v2.5c0,0.4,0.3,0.7,0.7,0.7h8.2
	c0.4,0,0.7-0.3,0.7-0.7V22.8z"/>
<path d="M10.7,67.6c-0.4,0-0.7,0.3-0.7,0.7v2.5V74v3.2v3.2v3.2v3.2v2.5c0,0.4,0.3,0.7,0.7,0.7h21c0.4,0,0.7-0.3,0.7-0.7v-2.5v-3.2
	v-3.2v-3.2V74v-3.2v-2.5c0-0.4-0.3-0.7-0.7-0.7C31.7,67.6,10.7,67.6,10.7,67.6z M29.2,74v3.2v3.2v3.2v2.8c0,0.2-0.2,0.4-0.4,0.4
	H13.6c-0.2,0-0.4-0.2-0.4-0.4v-2.8v-3.2v-3.2V74v-2.8c0-0.2,0.2-0.4,0.4-0.4h15.2c0.2,0,0.4,0.2,0.4,0.4V74z"/>
<path d="M26,80.4v-3.2v-2.5c0-0.4-0.3-0.7-0.7-0.7h-8.2c-0.4,0-0.7,0.3-0.7,0.7v2.5v3.2v2.5c0,0.4,0.3,0.7,0.7,0.7h8.2
	c0.4,0,0.7-0.3,0.7-0.7V80.4z"/>
</svg>
