<?xml version="1.0" encoding="UTF-8" standalone="no"?>
<svg
   xmlns:dc="http://purl.org/dc/elements/1.1/"
   xmlns:cc="http://creativecommons.org/ns#"
   xmlns:rdf="http://www.w3.org/1999/02/22-rdf-syntax-ns#"
   xmlns:svg="http://www.w3.org/2000/svg"
   xmlns="http://www.w3.org/2000/svg"
   xmlns:sodipodi="http://sodipodi.sourceforge.net/DTD/sodipodi-0.dtd"
   xmlns:inkscape="http://www.inkscape.org/namespaces/inkscape"
   version="1.1"
   width="52.916668mm"
   height="52.916668mm"
   id="svg672"
   sodipodi:docname="second try.svg"
   inkscape:version="1.0 (4035a4f, 2020-05-01)">
  <metadata
     id="metadata678">
    <rdf:RDF>
      <cc:Work
         rdf:about="">
        <dc:format>image/svg+xml</dc:format>
        <dc:type
           rdf:resource="http://purl.org/dc/dcmitype/StillImage" />
        <dc:title></dc:title>
      </cc:Work>
    </rdf:RDF>
  </metadata>
  <defs
     id="defs676" />
  <sodipodi:namedview
     inkscape:document-rotation="0"
     pagecolor="#ffffff"
     bordercolor="#666666"
     borderopacity="1"
     objecttolerance="10"
     gridtolerance="10"
     guidetolerance="10"
     inkscape:pageopacity="0"
     inkscape:pageshadow="2"
     inkscape:window-width="1906"
     inkscape:window-height="1021"
     id="namedview674"
     showgrid="false"
     inkscape:document-units="mm"
     units="mm"
     inkscape:zoom="3.675"
     inkscape:cx="100"
     inkscape:cy="100"
     inkscape:window-x="1447"
     inkscape:window-y="30"
     inkscape:window-maximized="0"
     inkscape:current-layer="svg672" />
  <rect
     shape-rendering="optimizeSpeed"
     x="-167"
     y="117"
     width="200"
     height="200"
     fill="#ffffff"
     id="rect10" />
  <path
     d="m 12,12 h 7 v 7 h -7 z"
     style="fill:#ff0000;shape-rendering:optimizeSpeed"
     id="rect12" />
  <path
     d="m 19,12 h 7 v 7 h -7 z"
     style="fill:#ff0000;shape-rendering:optimizeSpeed"
     id="rect14" />
  <path
     d="m 26,12 h 7 v 7 h -7 z"
     style="fill:#ff0000;shape-rendering:optimizeSpeed"
     id="rect16" />
  <path
     d="m 33,12 h 7 v 7 h -7 z"
     style="fill:#ff0000;shape-rendering:optimizeSpeed"
     id="rect18" />
  <path
     d="m 40,12 h 7 v 7 h -7 z"
     style="fill:#ff0000;shape-rendering:optimizeSpeed"
     id="rect20" />
  <path
     d="m 47,12 h 7 v 7 h -7 z"
     style="fill:#ff0000;shape-rendering:optimizeSpeed"
     id="rect22" />
  <path
     d="m 54,12 h 7 v 7 h -7 z"
     style="fill:#ff0000;shape-rendering:optimizeSpeed"
     id="rect24" />
  <path
     d="m 68,12 h 7 v 7 h -7 z"
     style="fill:#ff0000;shape-rendering:optimizeSpeed"
     id="rect26" />
  <path
     d="m 82,12 h 7 v 7 h -7 z"
     style="fill:#ff0000;shape-rendering:optimizeSpeed"
     id="rect28" />
  <path
     d="m 89,12 h 7 v 7 h -7 z"
     style="fill:#ff0000;shape-rendering:optimizeSpeed"
     id="rect30" />
  <path
     d="m 96,12 h 7 v 7 h -7 z"
     style="fill:#ff0000;shape-rendering:optimizeSpeed"
     id="rect32" />
  <path
     d="m 103,12 h 7 v 7 h -7 z"
     style="fill:#ff0000;shape-rendering:optimizeSpeed"
     id="rect34" />
  <path
     d="m 110,12 h 7 v 7 h -7 z"
     style="fill:#ff0000;shape-rendering:optimizeSpeed"
     id="rect36" />
  <path
     d="m 138,12 h 7 v 7 h -7 z"
     style="fill:#ff0000;shape-rendering:optimizeSpeed"
     id="rect38" />
  <path
     d="m 145,12 h 7 v 7 h -7 z"
     style="fill:#ff0000;shape-rendering:optimizeSpeed"
     id="rect40" />
  <path
     d="m 152,12 h 7 v 7 h -7 z"
     style="fill:#ff0000;shape-rendering:optimizeSpeed"
     id="rect42" />
  <path
     d="m 159,12 h 7 v 7 h -7 z"
     style="fill:#ff0000;shape-rendering:optimizeSpeed"
     id="rect44" />
  <path
     d="m 166,12 h 7 v 7 h -7 z"
     style="fill:#ff0000;shape-rendering:optimizeSpeed"
     id="rect46" />
  <path
     d="m 173,12 h 7 v 7 h -7 z"
     style="fill:#ff0000;shape-rendering:optimizeSpeed"
     id="rect48" />
  <path
     d="m 180,12 h 7 v 7 h -7 z"
     style="fill:#ff0000;shape-rendering:optimizeSpeed"
     id="rect50" />
  <path
     d="m 12,19 h 7 v 7 h -7 z"
     style="fill:#ff0000;shape-rendering:optimizeSpeed"
     id="rect52" />
  <path
     d="m 54,19 h 7 v 7 h -7 z"
     style="fill:#ff0000;shape-rendering:optimizeSpeed"
     id="rect54" />
  <path
     d="m 68,19 h 7 v 7 h -7 z"
     style="fill:#ff0000;shape-rendering:optimizeSpeed"
     id="rect56" />
  <path
     d="m 75,19 h 7 v 7 h -7 z"
     style="fill:#ff0000;shape-rendering:optimizeSpeed"
     id="rect58" />
  <path
     d="m 82,19 h 7 v 7 h -7 z"
     style="fill:#ff0000;shape-rendering:optimizeSpeed"
     id="rect60" />
  <path
     d="m 96,19 h 7 v 7 h -7 z"
     style="fill:#ff0000;shape-rendering:optimizeSpeed"
     id="rect62" />
  <path
     d="m 103,19 h 7 v 7 h -7 z"
     style="fill:#ff0000;shape-rendering:optimizeSpeed"
     id="rect64" />
  <path
     d="m 110,19 h 7 v 7 h -7 z"
     style="fill:#ff0000;shape-rendering:optimizeSpeed"
     id="rect66" />
  <path
     d="m 124,19 h 7 v 7 h -7 z"
     style="fill:#ff0000;shape-rendering:optimizeSpeed"
     id="rect68" />
  <path
     d="m 138,19 h 7 v 7 h -7 z"
     style="fill:#ff0000;shape-rendering:optimizeSpeed"
     id="rect70" />
  <path
     d="m 180,19 h 7 v 7 h -7 z"
     style="fill:#ff0000;shape-rendering:optimizeSpeed"
     id="rect72" />
  <path
     d="m 12,26 h 7 v 7 h -7 z"
     style="fill:#ff0000;shape-rendering:optimizeSpeed"
     id="rect74" />
  <path
     d="m 26,26 h 7 v 7 h -7 z"
     style="fill:#ff0000;shape-rendering:optimizeSpeed"
     id="rect76" />
  <path
     d="m 33,26 h 7 v 7 h -7 z"
     style="fill:#ff0000;shape-rendering:optimizeSpeed"
     id="rect78" />
  <path
     d="m 40,26 h 7 v 7 h -7 z"
     style="fill:#ff0000;shape-rendering:optimizeSpeed"
     id="rect80" />
  <path
     d="m 54,26 h 7 v 7 h -7 z"
     style="fill:#ff0000;shape-rendering:optimizeSpeed"
     id="rect82" />
  <path
     d="m 82,26 h 7 v 7 h -7 z"
     style="fill:#ff0000;shape-rendering:optimizeSpeed"
     id="rect84" />
  <path
     d="m 103,26 h 7 v 7 h -7 z"
     style="fill:#ff0000;shape-rendering:optimizeSpeed"
     id="rect86" />
  <path
     d="m 110,26 h 7 v 7 h -7 z"
     style="fill:#ff0000;shape-rendering:optimizeSpeed"
     id="rect88" />
  <path
     d="m 117,26 h 7 v 7 h -7 z"
     style="fill:#ff0000;shape-rendering:optimizeSpeed"
     id="rect90" />
  <path
     d="m 138,26 h 7 v 7 h -7 z"
     style="fill:#ff0000;shape-rendering:optimizeSpeed"
     id="rect92" />
  <path
     d="m 152,26 h 7 v 7 h -7 z"
     style="fill:#ff0000;shape-rendering:optimizeSpeed"
     id="rect94" />
  <path
     d="m 159,26 h 7 v 7 h -7 z"
     style="fill:#ff0000;shape-rendering:optimizeSpeed"
     id="rect96" />
  <path
     d="m 166,26 h 7 v 7 h -7 z"
     style="fill:#ff0000;shape-rendering:optimizeSpeed"
     id="rect98" />
  <path
     d="m 180,26 h 7 v 7 h -7 z"
     style="fill:#ff0000;shape-rendering:optimizeSpeed"
     id="rect100" />
  <path
     d="m 12,33 h 7 v 7 h -7 z"
     style="fill:#ff0000;shape-rendering:optimizeSpeed"
     id="rect102" />
  <path
     d="m 26,33 h 7 v 7 h -7 z"
     style="fill:#ff0000;shape-rendering:optimizeSpeed"
     id="rect104" />
  <path
     d="m 33,33 h 7 v 7 h -7 z"
     style="fill:#ff0000;shape-rendering:optimizeSpeed"
     id="rect106" />
  <path
     d="m 40,33 h 7 v 7 h -7 z"
     style="fill:#ff0000;shape-rendering:optimizeSpeed"
     id="rect108" />
  <path
     d="m 54,33 h 7 v 7 h -7 z"
     style="fill:#ff0000;shape-rendering:optimizeSpeed"
     id="rect110" />
  <path
     d="m 82,33 h 7 v 7 h -7 z"
     style="fill:#ff0000;shape-rendering:optimizeSpeed"
     id="rect112" />
  <path
     d="m 89,33 h 7 v 7 h -7 z"
     style="fill:#ff0000;shape-rendering:optimizeSpeed"
     id="rect114" />
  <path
     d="m 103,33 h 7 v 7 h -7 z"
     style="fill:#ff0000;shape-rendering:optimizeSpeed"
     id="rect116" />
  <path
     d="m 117,33 h 7 v 7 h -7 z"
     style="fill:#ff0000;shape-rendering:optimizeSpeed"
     id="rect118" />
  <path
     d="m 138,33 h 7 v 7 h -7 z"
     style="fill:#ff0000;shape-rendering:optimizeSpeed"
     id="rect120" />
  <path
     d="m 152,33 h 7 v 7 h -7 z"
     style="fill:#ff0000;shape-rendering:optimizeSpeed"
     id="rect122" />
  <path
     d="m 159,33 h 7 v 7 h -7 z"
     style="fill:#ff0000;shape-rendering:optimizeSpeed"
     id="rect124" />
  <path
     d="m 166,33 h 7 v 7 h -7 z"
     style="fill:#ff0000;shape-rendering:optimizeSpeed"
     id="rect126" />
  <path
     d="m 180,33 h 7 v 7 h -7 z"
     style="fill:#ff0000;shape-rendering:optimizeSpeed"
     id="rect128" />
  <path
     d="m 12,40 h 7 v 7 h -7 z"
     style="fill:#ff0000;shape-rendering:optimizeSpeed"
     id="rect130" />
  <path
     d="m 26,40 h 7 v 7 h -7 z"
     style="fill:#ff0000;shape-rendering:optimizeSpeed"
     id="rect132" />
  <path
     d="m 33,40 h 7 v 7 h -7 z"
     style="fill:#ff0000;shape-rendering:optimizeSpeed"
     id="rect134" />
  <path
     d="m 40,40 h 7 v 7 h -7 z"
     style="fill:#ff0000;shape-rendering:optimizeSpeed"
     id="rect136" />
  <path
     d="m 54,40 h 7 v 7 h -7 z"
     style="fill:#ff0000;shape-rendering:optimizeSpeed"
     id="rect138" />
  <path
     d="m 68,40 h 7 v 7 h -7 z"
     style="fill:#ff0000;shape-rendering:optimizeSpeed"
     id="rect140" />
  <path
     d="m 75,40 h 7 v 7 h -7 z"
     style="fill:#ff0000;shape-rendering:optimizeSpeed"
     id="rect142" />
  <path
     d="m 82,40 h 7 v 7 h -7 z"
     style="fill:#ff0000;shape-rendering:optimizeSpeed"
     id="rect144" />
  <path
     d="m 96,40 h 7 v 7 h -7 z"
     style="fill:#ff0000;shape-rendering:optimizeSpeed"
     id="rect146" />
  <path
     d="m 110,40 h 7 v 7 h -7 z"
     style="fill:#ff0000;shape-rendering:optimizeSpeed"
     id="rect148" />
  <path
     d="m 138,40 h 7 v 7 h -7 z"
     style="fill:#ff0000;shape-rendering:optimizeSpeed"
     id="rect150" />
  <path
     d="m 152,40 h 7 v 7 h -7 z"
     style="fill:#ff0000;shape-rendering:optimizeSpeed"
     id="rect152" />
  <path
     d="m 159,40 h 7 v 7 h -7 z"
     style="fill:#ff0000;shape-rendering:optimizeSpeed"
     id="rect154" />
  <path
     d="m 166,40 h 7 v 7 h -7 z"
     style="fill:#ff0000;shape-rendering:optimizeSpeed"
     id="rect156" />
  <path
     d="m 180,40 h 7 v 7 h -7 z"
     style="fill:#ff0000;shape-rendering:optimizeSpeed"
     id="rect158" />
  <path
     d="m 12,47 h 7 v 7 h -7 z"
     style="fill:#ff0000;shape-rendering:optimizeSpeed"
     id="rect160" />
  <path
     d="m 54,47 h 7 v 7 h -7 z"
     style="fill:#ff0000;shape-rendering:optimizeSpeed"
     id="rect162" />
  <path
     d="m 68,47 h 7 v 7 h -7 z"
     style="fill:#ff0000;shape-rendering:optimizeSpeed"
     id="rect164" />
  <path
     d="m 96,47 h 7 v 7 h -7 z"
     style="fill:#ff0000;shape-rendering:optimizeSpeed"
     id="rect166" />
  <path
     d="m 103,47 h 7 v 7 h -7 z"
     style="fill:#ff0000;shape-rendering:optimizeSpeed"
     id="rect168" />
  <path
     d="m 110,47 h 7 v 7 h -7 z"
     style="fill:#ff0000;shape-rendering:optimizeSpeed"
     id="rect170" />
  <path
     d="m 124,47 h 7 v 7 h -7 z"
     style="fill:#ff0000;shape-rendering:optimizeSpeed"
     id="rect172" />
  <path
     d="m 138,47 h 7 v 7 h -7 z"
     style="fill:#ff0000;shape-rendering:optimizeSpeed"
     id="rect174" />
  <path
     d="m 180,47 h 7 v 7 h -7 z"
     style="fill:#ff0000;shape-rendering:optimizeSpeed"
     id="rect176" />
  <path
     d="m 12,54 h 7 v 7 h -7 z"
     style="fill:#ff0000;shape-rendering:optimizeSpeed"
     id="rect178" />
  <path
     d="m 19,54 h 7 v 7 h -7 z"
     style="fill:#ff0000;shape-rendering:optimizeSpeed"
     id="rect180" />
  <path
     d="m 26,54 h 7 v 7 h -7 z"
     style="fill:#ff0000;shape-rendering:optimizeSpeed"
     id="rect182" />
  <path
     d="m 33,54 h 7 v 7 h -7 z"
     style="fill:#ff0000;shape-rendering:optimizeSpeed"
     id="rect184" />
  <path
     d="m 40,54 h 7 v 7 h -7 z"
     style="fill:#ff0000;shape-rendering:optimizeSpeed"
     id="rect186" />
  <path
     d="m 47,54 h 7 v 7 h -7 z"
     style="fill:#ff0000;shape-rendering:optimizeSpeed"
     id="rect188" />
  <path
     d="m 54,54 h 7 v 7 h -7 z"
     style="fill:#ff0000;shape-rendering:optimizeSpeed"
     id="rect190" />
  <path
     d="m 68,54 h 7 v 7 h -7 z"
     style="fill:#ff0000;shape-rendering:optimizeSpeed"
     id="rect192" />
  <path
     d="m 82,54 h 7 v 7 h -7 z"
     style="fill:#ff0000;shape-rendering:optimizeSpeed"
     id="rect194" />
  <path
     d="m 96,54 h 7 v 7 h -7 z"
     style="fill:#ff0000;shape-rendering:optimizeSpeed"
     id="rect196" />
  <path
     d="m 110,54 h 7 v 7 h -7 z"
     style="fill:#ff0000;shape-rendering:optimizeSpeed"
     id="rect198" />
  <path
     d="m 124,54 h 7 v 7 h -7 z"
     style="fill:#ff0000;shape-rendering:optimizeSpeed"
     id="rect200" />
  <path
     d="m 138,54 h 7 v 7 h -7 z"
     style="fill:#ff0000;shape-rendering:optimizeSpeed"
     id="rect202" />
  <path
     d="m 145,54 h 7 v 7 h -7 z"
     style="fill:#ff0000;shape-rendering:optimizeSpeed"
     id="rect204" />
  <path
     d="m 152,54 h 7 v 7 h -7 z"
     style="fill:#ff0000;shape-rendering:optimizeSpeed"
     id="rect206" />
  <path
     d="m 159,54 h 7 v 7 h -7 z"
     style="fill:#ff0000;shape-rendering:optimizeSpeed"
     id="rect208" />
  <path
     d="m 166,54 h 7 v 7 h -7 z"
     style="fill:#ff0000;shape-rendering:optimizeSpeed"
     id="rect210" />
  <path
     d="m 173,54 h 7 v 7 h -7 z"
     style="fill:#ff0000;shape-rendering:optimizeSpeed"
     id="rect212" />
  <path
     d="m 180,54 h 7 v 7 h -7 z"
     style="fill:#ff0000;shape-rendering:optimizeSpeed"
     id="rect214" />
  <path
     d="m 68,61 h 7 v 7 h -7 z"
     style="fill:#ff0000;shape-rendering:optimizeSpeed"
     id="rect216" />
  <path
     d="m 82,61 h 7 v 7 h -7 z"
     style="fill:#ff0000;shape-rendering:optimizeSpeed"
     id="rect218" />
  <path
     d="m 89,61 h 7 v 7 h -7 z"
     style="fill:#ff0000;shape-rendering:optimizeSpeed"
     id="rect220" />
  <path
     d="m 96,61 h 7 v 7 h -7 z"
     style="fill:#ff0000;shape-rendering:optimizeSpeed"
     id="rect222" />
  <path
     d="m 124,61 h 7 v 7 h -7 z"
     style="fill:#ff0000;shape-rendering:optimizeSpeed"
     id="rect224" />
  <path
     d="m 12,68 h 7 v 7 h -7 z"
     style="fill:#ff0000;shape-rendering:optimizeSpeed"
     id="rect226" />
  <path
     d="m 19,68 h 7 v 7 h -7 z"
     style="fill:#ff0000;shape-rendering:optimizeSpeed"
     id="rect228" />
  <path
     d="m 26,68 h 7 v 7 h -7 z"
     style="fill:#ff0000;shape-rendering:optimizeSpeed"
     id="rect230" />
  <path
     d="m 47,68 h 7 v 7 h -7 z"
     style="fill:#ff0000;shape-rendering:optimizeSpeed"
     id="rect232" />
  <path
     d="m 54,68 h 7 v 7 h -7 z"
     style="fill:#ff0000;shape-rendering:optimizeSpeed"
     id="rect234" />
  <path
     d="m 68,68 h 7 v 7 h -7 z"
     style="fill:#ff0000;shape-rendering:optimizeSpeed"
     id="rect236" />
  <path
     d="m 75,68 h 7 v 7 h -7 z"
     style="fill:#ff0000;shape-rendering:optimizeSpeed"
     id="rect238" />
  <path
     d="m 82,68 h 7 v 7 h -7 z"
     style="fill:#ff0000;shape-rendering:optimizeSpeed"
     id="rect240" />
  <path
     d="m 96,68 h 7 v 7 h -7 z"
     style="fill:#ff0000;shape-rendering:optimizeSpeed"
     id="rect242" />
  <path
     d="m 117,68 h 7 v 7 h -7 z"
     style="fill:#ff0000;shape-rendering:optimizeSpeed"
     id="rect244" />
  <path
     d="m 124,68 h 7 v 7 h -7 z"
     style="fill:#ff0000;shape-rendering:optimizeSpeed"
     id="rect246" />
  <path
     d="m 131,68 h 7 v 7 h -7 z"
     style="fill:#ff0000;shape-rendering:optimizeSpeed"
     id="rect248" />
  <path
     d="m 138,68 h 7 v 7 h -7 z"
     style="fill:#ff0000;shape-rendering:optimizeSpeed"
     id="rect250" />
  <path
     d="m 145,68 h 7 v 7 h -7 z"
     style="fill:#ff0000;shape-rendering:optimizeSpeed"
     id="rect252" />
  <path
     d="m 152,68 h 7 v 7 h -7 z"
     style="fill:#ff0000;shape-rendering:optimizeSpeed"
     id="rect254" />
  <path
     d="m 173,68 h 7 v 7 h -7 z"
     style="fill:#ff0000;shape-rendering:optimizeSpeed"
     id="rect256" />
  <path
     d="m 180,68 h 7 v 7 h -7 z"
     style="fill:#ff0000;shape-rendering:optimizeSpeed"
     id="rect258" />
  <path
     d="m 12,75 h 7 v 7 h -7 z"
     style="fill:#ff0000;shape-rendering:optimizeSpeed"
     id="rect260" />
  <path
     d="m 26,75 h 7 v 7 h -7 z"
     style="fill:#ff0000;shape-rendering:optimizeSpeed"
     id="rect262" />
  <path
     d="m 40,75 h 7 v 7 h -7 z"
     style="fill:#ff0000;shape-rendering:optimizeSpeed"
     id="rect264" />
  <path
     d="m 75,75 h 7 v 7 h -7 z"
     style="fill:#ff0000;shape-rendering:optimizeSpeed"
     id="rect266" />
  <path
     d="m 82,75 h 7 v 7 h -7 z"
     style="fill:#ff0000;shape-rendering:optimizeSpeed"
     id="rect268" />
  <path
     d="m 89,75 h 7 v 7 h -7 z"
     style="fill:#ff0000;shape-rendering:optimizeSpeed"
     id="rect270" />
  <path
     d="m 96,75 h 7 v 7 h -7 z"
     style="fill:#ff0000;shape-rendering:optimizeSpeed"
     id="rect272" />
  <path
     d="m 117,75 h 7 v 7 h -7 z"
     style="fill:#ff0000;shape-rendering:optimizeSpeed"
     id="rect274" />
  <path
     d="m 124,75 h 7 v 7 h -7 z"
     style="fill:#ff0000;shape-rendering:optimizeSpeed"
     id="rect276" />
  <path
     d="m 138,75 h 7 v 7 h -7 z"
     style="fill:#ff0000;shape-rendering:optimizeSpeed"
     id="rect278" />
  <path
     d="m 145,75 h 7 v 7 h -7 z"
     style="fill:#ff0000;shape-rendering:optimizeSpeed"
     id="rect280" />
  <path
     d="m 159,75 h 7 v 7 h -7 z"
     style="fill:#ff0000;shape-rendering:optimizeSpeed"
     id="rect282" />
  <path
     d="m 173,75 h 7 v 7 h -7 z"
     style="fill:#ff0000;shape-rendering:optimizeSpeed"
     id="rect284" />
  <path
     d="m 180,75 h 7 v 7 h -7 z"
     style="fill:#ff0000;shape-rendering:optimizeSpeed"
     id="rect286" />
  <path
     d="m 12,82 h 7 v 7 h -7 z"
     style="fill:#ff0000;shape-rendering:optimizeSpeed"
     id="rect288" />
  <path
     d="m 26,82 h 7 v 7 h -7 z"
     style="fill:#ff0000;shape-rendering:optimizeSpeed"
     id="rect290" />
  <path
     d="m 33,82 h 7 v 7 h -7 z"
     style="fill:#ff0000;shape-rendering:optimizeSpeed"
     id="rect292" />
  <path
     d="m 54,82 h 7 v 7 h -7 z"
     style="fill:#ff0000;shape-rendering:optimizeSpeed"
     id="rect294" />
  <path
     d="m 68,82 h 7 v 7 h -7 z"
     style="fill:#ff0000;shape-rendering:optimizeSpeed"
     id="rect296" />
  <path
     d="m 89,82 h 7 v 7 h -7 z"
     style="fill:#ff0000;shape-rendering:optimizeSpeed"
     id="rect298" />
  <path
     d="m 117,82 h 7 v 7 h -7 z"
     style="fill:#ff0000;shape-rendering:optimizeSpeed"
     id="rect300" />
  <path
     d="m 131,82 h 7 v 7 h -7 z"
     style="fill:#ff0000;shape-rendering:optimizeSpeed"
     id="rect302" />
  <path
     d="m 138,82 h 7 v 7 h -7 z"
     style="fill:#ff0000;shape-rendering:optimizeSpeed"
     id="rect304" />
  <path
     d="m 145,82 h 7 v 7 h -7 z"
     style="fill:#ff0000;shape-rendering:optimizeSpeed"
     id="rect306" />
  <path
     d="m 159,82 h 7 v 7 h -7 z"
     style="fill:#ff0000;shape-rendering:optimizeSpeed"
     id="rect308" />
  <path
     d="m 166,82 h 7 v 7 h -7 z"
     style="fill:#ff0000;shape-rendering:optimizeSpeed"
     id="rect310" />
  <path
     d="m 180,82 h 7 v 7 h -7 z"
     style="fill:#ff0000;shape-rendering:optimizeSpeed"
     id="rect312" />
  <path
     d="m 19,89 h 7 v 7 h -7 z"
     style="fill:#ff0000;shape-rendering:optimizeSpeed"
     id="rect314" />
  <path
     d="m 47,89 h 7 v 7 h -7 z"
     style="fill:#ff0000;shape-rendering:optimizeSpeed"
     id="rect316" />
  <path
     d="m 75,89 h 7 v 7 h -7 z"
     style="fill:#ff0000;shape-rendering:optimizeSpeed"
     id="rect318" />
  <path
     d="m 110,89 h 7 v 7 h -7 z"
     style="fill:#ff0000;shape-rendering:optimizeSpeed"
     id="rect320" />
  <path
     d="m 117,89 h 7 v 7 h -7 z"
     style="fill:#ff0000;shape-rendering:optimizeSpeed"
     id="rect322" />
  <path
     d="m 131,89 h 7 v 7 h -7 z"
     style="fill:#ff0000;shape-rendering:optimizeSpeed"
     id="rect324" />
  <path
     d="m 152,89 h 7 v 7 h -7 z"
     style="fill:#ff0000;shape-rendering:optimizeSpeed"
     id="rect326" />
  <path
     d="m 159,89 h 7 v 7 h -7 z"
     style="fill:#ff0000;shape-rendering:optimizeSpeed"
     id="rect328" />
  <path
     d="m 12,96 h 7 v 7 h -7 z"
     style="fill:#ff0000;shape-rendering:optimizeSpeed"
     id="rect330" />
  <path
     d="m 19,96 h 7 v 7 h -7 z"
     style="fill:#ff0000;shape-rendering:optimizeSpeed"
     id="rect332" />
  <path
     d="m 40,96 h 7 v 7 h -7 z"
     style="fill:#ff0000;shape-rendering:optimizeSpeed"
     id="rect334" />
  <path
     d="m 47,96 h 7 v 7 h -7 z"
     style="fill:#ff0000;shape-rendering:optimizeSpeed"
     id="rect336" />
  <path
     d="m 54,96 h 7 v 7 h -7 z"
     style="fill:#ff0000;shape-rendering:optimizeSpeed"
     id="rect338" />
  <path
     d="m 75,96 h 7 v 7 h -7 z"
     style="fill:#ff0000;shape-rendering:optimizeSpeed"
     id="rect340" />
  <path
     d="m 96,96 h 7 v 7 h -7 z"
     style="fill:#ff0000;shape-rendering:optimizeSpeed"
     id="rect342" />
  <path
     d="m 117,96 h 7 v 7 h -7 z"
     style="fill:#ff0000;shape-rendering:optimizeSpeed"
     id="rect344" />
  <path
     d="m 138,96 h 7 v 7 h -7 z"
     style="fill:#ff0000;shape-rendering:optimizeSpeed"
     id="rect346" />
  <path
     d="m 145,96 h 7 v 7 h -7 z"
     style="fill:#ff0000;shape-rendering:optimizeSpeed"
     id="rect348" />
  <path
     d="m 180,96 h 7 v 7 h -7 z"
     style="fill:#ff0000;shape-rendering:optimizeSpeed"
     id="rect350" />
  <path
     d="m 26,103 h 7 v 7 h -7 z"
     style="fill:#ff0000;shape-rendering:optimizeSpeed"
     id="rect352" />
  <path
     d="m 61,103 h 7 v 7 h -7 z"
     style="fill:#ff0000;shape-rendering:optimizeSpeed"
     id="rect354" />
  <path
     d="m 75,103 h 7 v 7 h -7 z"
     style="fill:#ff0000;shape-rendering:optimizeSpeed"
     id="rect356" />
  <path
     d="m 89,103 h 7 v 7 h -7 z"
     style="fill:#ff0000;shape-rendering:optimizeSpeed"
     id="rect358" />
  <path
     d="m 96,103 h 7 v 7 h -7 z"
     style="fill:#ff0000;shape-rendering:optimizeSpeed"
     id="rect360" />
  <path
     d="m 103,103 h 7 v 7 h -7 z"
     style="fill:#ff0000;shape-rendering:optimizeSpeed"
     id="rect362" />
  <path
     d="m 117,103 h 7 v 7 h -7 z"
     style="fill:#ff0000;shape-rendering:optimizeSpeed"
     id="rect364" />
  <path
     d="m 124,103 h 7 v 7 h -7 z"
     style="fill:#ff0000;shape-rendering:optimizeSpeed"
     id="rect366" />
  <path
     d="m 131,103 h 7 v 7 h -7 z"
     style="fill:#ff0000;shape-rendering:optimizeSpeed"
     id="rect368" />
  <path
     d="m 138,103 h 7 v 7 h -7 z"
     style="fill:#ff0000;shape-rendering:optimizeSpeed"
     id="rect370" />
  <path
     d="m 145,103 h 7 v 7 h -7 z"
     style="fill:#ff0000;shape-rendering:optimizeSpeed"
     id="rect372" />
  <path
     d="m 173,103 h 7 v 7 h -7 z"
     style="fill:#ff0000;shape-rendering:optimizeSpeed"
     id="rect374" />
  <path
     d="m 180,103 h 7 v 7 h -7 z"
     style="fill:#ff0000;shape-rendering:optimizeSpeed"
     id="rect376" />
  <path
     d="m 12,110 h 7 v 7 h -7 z"
     style="fill:#ff0000;shape-rendering:optimizeSpeed"
     id="rect378" />
  <path
     d="m 19,110 h 7 v 7 h -7 z"
     style="fill:#ff0000;shape-rendering:optimizeSpeed"
     id="rect380" />
  <path
     d="m 26,110 h 7 v 7 h -7 z"
     style="fill:#ff0000;shape-rendering:optimizeSpeed"
     id="rect382" />
  <path
     d="m 33,110 h 7 v 7 h -7 z"
     style="fill:#ff0000;shape-rendering:optimizeSpeed"
     id="rect384" />
  <path
     d="m 40,110 h 7 v 7 h -7 z"
     style="fill:#ff0000;shape-rendering:optimizeSpeed"
     id="rect386" />
  <path
     d="m 54,110 h 7 v 7 h -7 z"
     style="fill:#ff0000;shape-rendering:optimizeSpeed"
     id="rect388" />
  <path
     d="m 61,110 h 7 v 7 h -7 z"
     style="fill:#ff0000;shape-rendering:optimizeSpeed"
     id="rect390" />
  <path
     d="m 68,110 h 7 v 7 h -7 z"
     style="fill:#ff0000;shape-rendering:optimizeSpeed"
     id="rect392" />
  <path
     d="m 82,110 h 7 v 7 h -7 z"
     style="fill:#ff0000;shape-rendering:optimizeSpeed"
     id="rect394" />
  <path
     d="m 89,110 h 7 v 7 h -7 z"
     style="fill:#ff0000;shape-rendering:optimizeSpeed"
     id="rect396" />
  <path
     d="m 96,110 h 7 v 7 h -7 z"
     style="fill:#ff0000;shape-rendering:optimizeSpeed"
     id="rect398" />
  <path
     d="m 103,110 h 7 v 7 h -7 z"
     style="fill:#ff0000;shape-rendering:optimizeSpeed"
     id="rect400" />
  <path
     d="m 110,110 h 7 v 7 h -7 z"
     style="fill:#ff0000;shape-rendering:optimizeSpeed"
     id="rect402" />
  <path
     d="m 117,110 h 7 v 7 h -7 z"
     style="fill:#ff0000;shape-rendering:optimizeSpeed"
     id="rect404" />
  <path
     d="m 124,110 h 7 v 7 h -7 z"
     style="fill:#ff0000;shape-rendering:optimizeSpeed"
     id="rect406" />
  <path
     d="m 131,110 h 7 v 7 h -7 z"
     style="fill:#ff0000;shape-rendering:optimizeSpeed"
     id="rect408" />
  <path
     d="m 138,110 h 7 v 7 h -7 z"
     style="fill:#ff0000;shape-rendering:optimizeSpeed"
     id="rect410" />
  <path
     d="m 159,110 h 7 v 7 h -7 z"
     style="fill:#ff0000;shape-rendering:optimizeSpeed"
     id="rect412" />
  <path
     d="m 166,110 h 7 v 7 h -7 z"
     style="fill:#ff0000;shape-rendering:optimizeSpeed"
     id="rect414" />
  <path
     d="m 180,110 h 7 v 7 h -7 z"
     style="fill:#ff0000;shape-rendering:optimizeSpeed"
     id="rect416" />
  <path
     d="m 26,117 h 7 v 7 h -7 z"
     style="fill:#ff0000;shape-rendering:optimizeSpeed"
     id="rect418" />
  <path
     d="m 40,117 h 7 v 7 h -7 z"
     style="fill:#ff0000;shape-rendering:optimizeSpeed"
     id="rect420" />
  <path
     d="m 61,117 h 7 v 7 h -7 z"
     style="fill:#ff0000;shape-rendering:optimizeSpeed"
     id="rect422" />
  <path
     d="m 68,117 h 7 v 7 h -7 z"
     style="fill:#ff0000;shape-rendering:optimizeSpeed"
     id="rect424" />
  <path
     d="m 75,117 h 7 v 7 h -7 z"
     style="fill:#ff0000;shape-rendering:optimizeSpeed"
     id="rect426" />
  <path
     d="m 89,117 h 7 v 7 h -7 z"
     style="fill:#ff0000;shape-rendering:optimizeSpeed"
     id="rect428" />
  <path
     d="m 96,117 h 7 v 7 h -7 z"
     style="fill:#ff0000;shape-rendering:optimizeSpeed"
     id="rect430" />
  <path
     d="m 110,117 h 7 v 7 h -7 z"
     style="fill:#ff0000;shape-rendering:optimizeSpeed"
     id="rect432" />
  <path
     d="m 124,117 h 7 v 7 h -7 z"
     style="fill:#ff0000;shape-rendering:optimizeSpeed"
     id="rect434" />
  <path
     d="m 131,117 h 7 v 7 h -7 z"
     style="fill:#ff0000;shape-rendering:optimizeSpeed"
     id="rect436" />
  <path
     d="m 138,117 h 7 v 7 h -7 z"
     style="fill:#ff0000;shape-rendering:optimizeSpeed"
     id="rect438" />
  <path
     d="m 145,117 h 7 v 7 h -7 z"
     style="fill:#ff0000;shape-rendering:optimizeSpeed"
     id="rect440" />
  <path
     d="m 152,117 h 7 v 7 h -7 z"
     style="fill:#ff0000;shape-rendering:optimizeSpeed"
     id="rect442" />
  <path
     d="m 159,117 h 7 v 7 h -7 z"
     style="fill:#ff0000;shape-rendering:optimizeSpeed"
     id="rect444" />
  <path
     d="m 12,124 h 7 v 7 h -7 z"
     style="fill:#ff0000;shape-rendering:optimizeSpeed"
     id="rect446" />
  <path
     d="m 19,124 h 7 v 7 h -7 z"
     style="fill:#ff0000;shape-rendering:optimizeSpeed"
     id="rect448" />
  <path
     d="m 40,124 h 7 v 7 h -7 z"
     style="fill:#ff0000;shape-rendering:optimizeSpeed"
     id="rect450" />
  <path
     d="m 47,124 h 7 v 7 h -7 z"
     style="fill:#ff0000;shape-rendering:optimizeSpeed"
     id="rect452" />
  <path
     d="m 54,124 h 7 v 7 h -7 z"
     style="fill:#ff0000;shape-rendering:optimizeSpeed"
     id="rect454" />
  <path
     d="m 61,124 h 7 v 7 h -7 z"
     style="fill:#ff0000;shape-rendering:optimizeSpeed"
     id="rect456" />
  <path
     d="m 68,124 h 7 v 7 h -7 z"
     style="fill:#ff0000;shape-rendering:optimizeSpeed"
     id="rect458" />
  <path
     d="m 96,124 h 7 v 7 h -7 z"
     style="fill:#ff0000;shape-rendering:optimizeSpeed"
     id="rect460" />
  <path
     d="m 117,124 h 7 v 7 h -7 z"
     style="fill:#ff0000;shape-rendering:optimizeSpeed"
     id="rect462" />
  <path
     d="m 124,124 h 7 v 7 h -7 z"
     style="fill:#ff0000;shape-rendering:optimizeSpeed"
     id="rect464" />
  <path
     d="m 131,124 h 7 v 7 h -7 z"
     style="fill:#ff0000;shape-rendering:optimizeSpeed"
     id="rect466" />
  <path
     d="m 138,124 h 7 v 7 h -7 z"
     style="fill:#ff0000;shape-rendering:optimizeSpeed"
     id="rect468" />
  <path
     d="m 145,124 h 7 v 7 h -7 z"
     style="fill:#ff0000;shape-rendering:optimizeSpeed"
     id="rect470" />
  <path
     d="m 152,124 h 7 v 7 h -7 z"
     style="fill:#ff0000;shape-rendering:optimizeSpeed"
     id="rect472" />
  <path
     d="m 173,124 h 7 v 7 h -7 z"
     style="fill:#ff0000;shape-rendering:optimizeSpeed"
     id="rect474" />
  <path
     d="m 68,131 h 7 v 7 h -7 z"
     style="fill:#ff0000;shape-rendering:optimizeSpeed"
     id="rect476" />
  <path
     d="m 75,131 h 7 v 7 h -7 z"
     style="fill:#ff0000;shape-rendering:optimizeSpeed"
     id="rect478" />
  <path
     d="m 89,131 h 7 v 7 h -7 z"
     style="fill:#ff0000;shape-rendering:optimizeSpeed"
     id="rect480" />
  <path
     d="m 110,131 h 7 v 7 h -7 z"
     style="fill:#ff0000;shape-rendering:optimizeSpeed"
     id="rect482" />
  <path
     d="m 117,131 h 7 v 7 h -7 z"
     style="fill:#ff0000;shape-rendering:optimizeSpeed"
     id="rect484" />
  <path
     d="m 124,131 h 7 v 7 h -7 z"
     style="fill:#ff0000;shape-rendering:optimizeSpeed"
     id="rect486" />
  <path
     d="m 152,131 h 7 v 7 h -7 z"
     style="fill:#ff0000;shape-rendering:optimizeSpeed"
     id="rect488" />
  <path
     d="m 180,131 h 7 v 7 h -7 z"
     style="fill:#ff0000;shape-rendering:optimizeSpeed"
     id="rect490" />
  <path
     d="m 12,138 h 7 v 7 h -7 z"
     style="fill:#ff0000;shape-rendering:optimizeSpeed"
     id="rect492" />
  <path
     d="m 19,138 h 7 v 7 h -7 z"
     style="fill:#ff0000;shape-rendering:optimizeSpeed"
     id="rect494" />
  <path
     d="m 26,138 h 7 v 7 h -7 z"
     style="fill:#ff0000;shape-rendering:optimizeSpeed"
     id="rect496" />
  <path
     d="m 33,138 h 7 v 7 h -7 z"
     style="fill:#ff0000;shape-rendering:optimizeSpeed"
     id="rect498" />
  <path
     d="m 40,138 h 7 v 7 h -7 z"
     style="fill:#ff0000;shape-rendering:optimizeSpeed"
     id="rect500" />
  <path
     d="m 47,138 h 7 v 7 h -7 z"
     style="fill:#ff0000;shape-rendering:optimizeSpeed"
     id="rect502" />
  <path
     d="m 54,138 h 7 v 7 h -7 z"
     style="fill:#ff0000;shape-rendering:optimizeSpeed"
     id="rect504" />
  <path
     d="m 82,138 h 7 v 7 h -7 z"
     style="fill:#ff0000;shape-rendering:optimizeSpeed"
     id="rect506" />
  <path
     d="m 89,138 h 7 v 7 h -7 z"
     style="fill:#ff0000;shape-rendering:optimizeSpeed"
     id="rect508" />
  <path
     d="m 96,138 h 7 v 7 h -7 z"
     style="fill:#ff0000;shape-rendering:optimizeSpeed"
     id="rect510" />
  <path
     d="m 103,138 h 7 v 7 h -7 z"
     style="fill:#ff0000;shape-rendering:optimizeSpeed"
     id="rect512" />
  <path
     d="m 124,138 h 7 v 7 h -7 z"
     style="fill:#ff0000;shape-rendering:optimizeSpeed"
     id="rect514" />
  <path
     d="m 138,138 h 7 v 7 h -7 z"
     style="fill:#ff0000;shape-rendering:optimizeSpeed"
     id="rect516" />
  <path
     d="m 152,138 h 7 v 7 h -7 z"
     style="fill:#ff0000;shape-rendering:optimizeSpeed"
     id="rect518" />
  <path
     d="m 180,138 h 7 v 7 h -7 z"
     style="fill:#ff0000;shape-rendering:optimizeSpeed"
     id="rect520" />
  <path
     d="m 12,145 h 7 v 7 h -7 z"
     style="fill:#ff0000;shape-rendering:optimizeSpeed"
     id="rect522" />
  <path
     d="m 54,145 h 7 v 7 h -7 z"
     style="fill:#ff0000;shape-rendering:optimizeSpeed"
     id="rect524" />
  <path
     d="m 68,145 h 7 v 7 h -7 z"
     style="fill:#ff0000;shape-rendering:optimizeSpeed"
     id="rect526" />
  <path
     d="m 75,145 h 7 v 7 h -7 z"
     style="fill:#ff0000;shape-rendering:optimizeSpeed"
     id="rect528" />
  <path
     d="m 89,145 h 7 v 7 h -7 z"
     style="fill:#ff0000;shape-rendering:optimizeSpeed"
     id="rect530" />
  <path
     d="m 117,145 h 7 v 7 h -7 z"
     style="fill:#ff0000;shape-rendering:optimizeSpeed"
     id="rect532" />
  <path
     d="m 124,145 h 7 v 7 h -7 z"
     style="fill:#ff0000;shape-rendering:optimizeSpeed"
     id="rect534" />
  <path
     d="m 152,145 h 7 v 7 h -7 z"
     style="fill:#ff0000;shape-rendering:optimizeSpeed"
     id="rect536" />
  <path
     d="m 173,145 h 7 v 7 h -7 z"
     style="fill:#ff0000;shape-rendering:optimizeSpeed"
     id="rect538" />
  <path
     d="m 12,152 h 7 v 7 h -7 z"
     style="fill:#ff0000;shape-rendering:optimizeSpeed"
     id="rect540" />
  <path
     d="m 26,152 h 7 v 7 h -7 z"
     style="fill:#ff0000;shape-rendering:optimizeSpeed"
     id="rect542" />
  <path
     d="m 33,152 h 7 v 7 h -7 z"
     style="fill:#ff0000;shape-rendering:optimizeSpeed"
     id="rect544" />
  <path
     d="m 40,152 h 7 v 7 h -7 z"
     style="fill:#ff0000;shape-rendering:optimizeSpeed"
     id="rect546" />
  <path
     d="m 54,152 h 7 v 7 h -7 z"
     style="fill:#ff0000;shape-rendering:optimizeSpeed"
     id="rect548" />
  <path
     d="m 75,152 h 7 v 7 h -7 z"
     style="fill:#ff0000;shape-rendering:optimizeSpeed"
     id="rect550" />
  <path
     d="m 89,152 h 7 v 7 h -7 z"
     style="fill:#ff0000;shape-rendering:optimizeSpeed"
     id="rect552" />
  <path
     d="m 96,152 h 7 v 7 h -7 z"
     style="fill:#ff0000;shape-rendering:optimizeSpeed"
     id="rect554" />
  <path
     d="m 117,152 h 7 v 7 h -7 z"
     style="fill:#ff0000;shape-rendering:optimizeSpeed"
     id="rect556" />
  <path
     d="m 124,152 h 7 v 7 h -7 z"
     style="fill:#ff0000;shape-rendering:optimizeSpeed"
     id="rect558" />
  <path
     d="m 131,152 h 7 v 7 h -7 z"
     style="fill:#ff0000;shape-rendering:optimizeSpeed"
     id="rect560" />
  <path
     d="m 138,152 h 7 v 7 h -7 z"
     style="fill:#ff0000;shape-rendering:optimizeSpeed"
     id="rect562" />
  <path
     d="m 145,152 h 7 v 7 h -7 z"
     style="fill:#ff0000;shape-rendering:optimizeSpeed"
     id="rect564" />
  <path
     d="m 152,152 h 7 v 7 h -7 z"
     style="fill:#ff0000;shape-rendering:optimizeSpeed"
     id="rect566" />
  <path
     d="m 12,159 h 7 v 7 h -7 z"
     style="fill:#ff0000;shape-rendering:optimizeSpeed"
     id="rect568" />
  <path
     d="m 26,159 h 7 v 7 h -7 z"
     style="fill:#ff0000;shape-rendering:optimizeSpeed"
     id="rect570" />
  <path
     d="m 33,159 h 7 v 7 h -7 z"
     style="fill:#ff0000;shape-rendering:optimizeSpeed"
     id="rect572" />
  <path
     d="m 40,159 h 7 v 7 h -7 z"
     style="fill:#ff0000;shape-rendering:optimizeSpeed"
     id="rect574" />
  <path
     d="m 54,159 h 7 v 7 h -7 z"
     style="fill:#ff0000;shape-rendering:optimizeSpeed"
     id="rect576" />
  <path
     d="m 75,159 h 7 v 7 h -7 z"
     style="fill:#ff0000;shape-rendering:optimizeSpeed"
     id="rect578" />
  <path
     d="m 82,159 h 7 v 7 h -7 z"
     style="fill:#ff0000;shape-rendering:optimizeSpeed"
     id="rect580" />
  <path
     d="m 89,159 h 7 v 7 h -7 z"
     style="fill:#ff0000;shape-rendering:optimizeSpeed"
     id="rect582" />
  <path
     d="m 96,159 h 7 v 7 h -7 z"
     style="fill:#ff0000;shape-rendering:optimizeSpeed"
     id="rect584" />
  <path
     d="m 103,159 h 7 v 7 h -7 z"
     style="fill:#ff0000;shape-rendering:optimizeSpeed"
     id="rect586" />
  <path
     d="m 124,159 h 7 v 7 h -7 z"
     style="fill:#ff0000;shape-rendering:optimizeSpeed"
     id="rect588" />
  <path
     d="m 131,159 h 7 v 7 h -7 z"
     style="fill:#ff0000;shape-rendering:optimizeSpeed"
     id="rect590" />
  <path
     d="m 152,159 h 7 v 7 h -7 z"
     style="fill:#ff0000;shape-rendering:optimizeSpeed"
     id="rect592" />
  <path
     d="m 166,159 h 7 v 7 h -7 z"
     style="fill:#ff0000;shape-rendering:optimizeSpeed"
     id="rect594" />
  <path
     d="m 173,159 h 7 v 7 h -7 z"
     style="fill:#ff0000;shape-rendering:optimizeSpeed"
     id="rect596" />
  <path
     d="m 12,166 h 7 v 7 h -7 z"
     style="fill:#ff0000;shape-rendering:optimizeSpeed"
     id="rect598" />
  <path
     d="m 26,166 h 7 v 7 h -7 z"
     style="fill:#ff0000;shape-rendering:optimizeSpeed"
     id="rect600" />
  <path
     d="m 33,166 h 7 v 7 h -7 z"
     style="fill:#ff0000;shape-rendering:optimizeSpeed"
     id="rect602" />
  <path
     d="m 40,166 h 7 v 7 h -7 z"
     style="fill:#ff0000;shape-rendering:optimizeSpeed"
     id="rect604" />
  <path
     d="m 54,166 h 7 v 7 h -7 z"
     style="fill:#ff0000;shape-rendering:optimizeSpeed"
     id="rect606" />
  <path
     d="m 68,166 h 7 v 7 h -7 z"
     style="fill:#ff0000;shape-rendering:optimizeSpeed"
     id="rect608" />
  <path
     d="m 89,166 h 7 v 7 h -7 z"
     style="fill:#ff0000;shape-rendering:optimizeSpeed"
     id="rect610" />
  <path
     d="m 103,166 h 7 v 7 h -7 z"
     style="fill:#ff0000;shape-rendering:optimizeSpeed"
     id="rect612" />
  <path
     d="m 110,166 h 7 v 7 h -7 z"
     style="fill:#ff0000;shape-rendering:optimizeSpeed"
     id="rect614" />
  <path
     d="m 131,166 h 7 v 7 h -7 z"
     style="fill:#ff0000;shape-rendering:optimizeSpeed"
     id="rect616" />
  <path
     d="m 145,166 h 7 v 7 h -7 z"
     style="fill:#ff0000;shape-rendering:optimizeSpeed"
     id="rect618" />
  <path
     d="m 152,166 h 7 v 7 h -7 z"
     style="fill:#ff0000;shape-rendering:optimizeSpeed"
     id="rect620" />
  <path
     d="m 159,166 h 7 v 7 h -7 z"
     style="fill:#ff0000;shape-rendering:optimizeSpeed"
     id="rect622" />
  <path
     d="m 173,166 h 7 v 7 h -7 z"
     style="fill:#ff0000;shape-rendering:optimizeSpeed"
     id="rect624" />
  <path
     d="m 180,166 h 7 v 7 h -7 z"
     style="fill:#ff0000;shape-rendering:optimizeSpeed"
     id="rect626" />
  <path
     d="m 12,173 h 7 v 7 h -7 z"
     style="fill:#ff0000;shape-rendering:optimizeSpeed"
     id="rect628" />
  <path
     d="m 54,173 h 7 v 7 h -7 z"
     style="fill:#ff0000;shape-rendering:optimizeSpeed"
     id="rect630" />
  <path
     d="m 68,173 h 7 v 7 h -7 z"
     style="fill:#ff0000;shape-rendering:optimizeSpeed"
     id="rect632" />
  <path
     d="m 82,173 h 7 v 7 h -7 z"
     style="fill:#ff0000;shape-rendering:optimizeSpeed"
     id="rect634" />
  <path
     d="m 96,173 h 7 v 7 h -7 z"
     style="fill:#ff0000;shape-rendering:optimizeSpeed"
     id="rect636" />
  <path
     d="m 124,173 h 7 v 7 h -7 z"
     style="fill:#ff0000;shape-rendering:optimizeSpeed"
     id="rect638" />
  <path
     d="m 131,173 h 7 v 7 h -7 z"
     style="fill:#ff0000;shape-rendering:optimizeSpeed"
     id="rect640" />
  <path
     d="m 138,173 h 7 v 7 h -7 z"
     style="fill:#ff0000;shape-rendering:optimizeSpeed"
     id="rect642" />
  <path
     d="m 145,173 h 7 v 7 h -7 z"
     style="fill:#ff0000;shape-rendering:optimizeSpeed"
     id="rect644" />
  <path
     d="m 152,173 h 7 v 7 h -7 z"
     style="fill:#ff0000;shape-rendering:optimizeSpeed"
     id="rect646" />
  <path
     d="m 12,180 h 7 v 7 h -7 z"
     style="fill:#ff0000;shape-rendering:optimizeSpeed"
     id="rect648" />
  <path
     d="m 19,180 h 7 v 7 h -7 z"
     style="fill:#ff0000;shape-rendering:optimizeSpeed"
     id="rect650" />
  <path
     d="m 26,180 h 7 v 7 h -7 z"
     style="fill:#ff0000;shape-rendering:optimizeSpeed"
     id="rect652" />
  <path
     d="m 33,180 h 7 v 7 h -7 z"
     style="fill:#ff0000;shape-rendering:optimizeSpeed"
     id="rect654" />
  <path
     d="m 40,180 h 7 v 7 h -7 z"
     style="fill:#ff0000;shape-rendering:optimizeSpeed"
     id="rect656" />
  <path
     d="m 47,180 h 7 v 7 h -7 z"
     style="fill:#ff0000;shape-rendering:optimizeSpeed"
     id="rect658" />
  <path
     d="m 54,180 h 7 v 7 h -7 z"
     style="fill:#ff0000;shape-rendering:optimizeSpeed"
     id="rect660" />
  <path
     d="m 68,180 h 7 v 7 h -7 z"
     style="fill:#ff0000;shape-rendering:optimizeSpeed"
     id="rect662" />
  <path
     d="m 89,180 h 7 v 7 h -7 z"
     style="fill:#ff0000;shape-rendering:optimizeSpeed"
     id="rect664" />
  <path
     d="m 124,180 h 7 v 7 h -7 z"
     style="fill:#ff0000;shape-rendering:optimizeSpeed"
     id="rect666" />
  <path
     d="m 159,180 h 7 v 7 h -7 z"
     style="fill:#ff0000;shape-rendering:optimizeSpeed"
     id="rect668" />
  <path
     d="m 180,180 h 7 v 7 h -7 z"
     style="fill:#ff0000;shape-rendering:optimizeSpeed"
     id="rect670" />
</svg>
