<?xml version="1.0" encoding="UTF-8" standalone="no"?>
<svg
   xmlns:dc="http://purl.org/dc/elements/1.1/"
   xmlns:cc="http://creativecommons.org/ns#"
   xmlns:rdf="http://www.w3.org/1999/02/22-rdf-syntax-ns#"
   xmlns:svg="http://www.w3.org/2000/svg"
   xmlns="http://www.w3.org/2000/svg"
   xmlns:sodipodi="http://sodipodi.sourceforge.net/DTD/sodipodi-0.dtd"
   xmlns:inkscape="http://www.inkscape.org/namespaces/inkscape"
   inkscape:version="1.0 (4035a4f, 2020-05-01)"
   sodipodi:docname="cut_nfc [Converted].svg"
   viewBox="0 0 816 1056"
   height="279.39999mm"
   width="215.89999mm"
   xml:space="preserve"
   id="svg128"
   version="1.1"><metadata
     id="metadata134"><rdf:RDF><cc:Work
         rdf:about=""><dc:format>image/svg+xml</dc:format><dc:type
           rdf:resource="http://purl.org/dc/dcmitype/StillImage" /><dc:title></dc:title></cc:Work></rdf:RDF></metadata><defs
     id="defs132" /><sodipodi:namedview
     inkscape:current-layer="g136"
     inkscape:window-maximized="0"
     inkscape:window-y="30"
     inkscape:window-x="1447"
     inkscape:cy="528"
     inkscape:cx="408"
     inkscape:zoom="0.76988636"
     units="mm"
     inkscape:document-units="mm"
     showgrid="false"
     id="namedview130"
     inkscape:window-height="1021"
     inkscape:window-width="1906"
     inkscape:pageshadow="2"
     inkscape:pageopacity="0"
     guidetolerance="10"
     gridtolerance="10"
     objecttolerance="10"
     borderopacity="1"
     bordercolor="#666666"
     pagecolor="#ffffff" /><g
     transform="matrix(1.3333333,0,0,-1.3333333,0,1056)"
     inkscape:label="cut_nfc [Converted]"
     inkscape:groupmode="layer"
     id="g136"><g
       style="fill:#ff0000"
       transform="translate(11.751,8.0566)"
       id="g138"><path
         id="path140"
         style="fill:#ff0000;fill-opacity:1;fill-rule:nonzero;stroke:none"
         d="M 0,0 0.056,0.018 0.111,0.039 0.165,0.063 0.216,0.091 0.266,0.121 0.314,0.154 0.36,0.189 0.404,0.228 0.445,0.269 0.484,0.312 0.521,0.356 0.555,0.404 0.586,0.454 0.615,0.505 0.64,0.559 0.662,0.613 0.774,0.937 0.871,1.263 0.952,1.591 1.017,1.92 1.066,2.25 1.1,2.582 1.117,2.914 1.119,3.246 1.108,3.512 1.089,3.775 1.059,4.037 1.019,4.298 0.97,4.558 0.911,4.814 0.843,5.068 0.765,5.321 0.678,5.57 0.582,5.816 0.476,6.061 0.361,6.3 0.237,6.537 0.104,6.77 -0.037,6.998 -0.188,7.223 -0.206,7.247 -0.225,7.27 -0.244,7.291 -0.265,7.312 -0.286,7.331 -0.308,7.35 -0.331,7.366 -0.355,7.382 -0.379,7.396 -0.404,7.409 -0.43,7.422 -0.456,7.433 -0.481,7.441 -0.508,7.45 -0.536,7.457 -0.563,7.462 -0.59,7.467 -0.618,7.47 -0.646,7.471 H -0.674 L -0.702,7.47 -0.73,7.468 -0.758,7.464 -0.786,7.459 -0.813,7.452 -0.841,7.444 -0.868,7.435 -0.895,7.424 -0.921,7.412 -0.947,7.398 -0.972,7.383 -0.998,7.366 -1.021,7.349 -1.044,7.33 -1.066,7.311 -1.087,7.29 -1.106,7.269 -1.124,7.246 -1.141,7.224 -1.157,7.2 -1.171,7.176 -1.185,7.15 -1.196,7.125 -1.207,7.1 -1.216,7.073 -1.225,7.046 -1.231,7.02 -1.237,6.992 -1.241,6.964 -1.244,6.937 -1.246,6.908 V 6.881 l 10e-4,-0.028 0.002,-0.029 0.004,-0.027 0.006,-0.028 0.006,-0.028 0.008,-0.027 0.01,-0.027 0.01,-0.027 0.012,-0.026 0.014,-0.027 0.015,-0.025 0.203,-0.309 0.116,-0.194 0.108,-0.196 0.1,-0.2 L -0.538,5.479 -0.454,5.274 -0.376,5.066 -0.307,4.855 -0.246,4.644 -0.192,4.429 -0.147,4.213 -0.109,3.995 -0.081,3.776 -0.06,3.556 -0.042,3.161 -0.046,2.909 -0.061,2.658 -0.085,2.408 -0.122,2.158 -0.168,1.908 -0.227,1.659 -0.295,1.412 -0.354,1.227 -5.73,5.358 -5.776,5.388 -5.824,5.414 -5.873,5.437 -5.922,5.457 -5.973,5.474 -6.024,5.487 -6.077,5.498 -6.129,5.505 -6.183,5.51 -6.236,5.511 -6.29,5.509 -6.343,5.503 -6.396,5.494 -6.45,5.482 -6.502,5.467 -6.553,5.448 -6.603,5.427 -6.651,5.402 -6.698,5.375 -6.742,5.346 -6.785,5.313 -6.825,5.278 -6.863,5.241 -6.899,5.202 -6.933,5.161 -6.963,5.117 -6.992,5.072 -7.018,5.025 -7.04,4.976 -7.06,4.926 -7.077,4.874 -7.168,4.523 -7.253,4.092 -7.288,3.85 -7.315,3.591 -7.333,3.318 -7.339,3.031 -7.331,2.775 -7.306,2.524 -7.267,2.279 -7.216,2.043 -7.156,1.815 -7.089,1.6 -7.017,1.396 -6.867,1.032 -6.724,0.736 -6.607,0.521 -6.519,0.374 -6.502,0.35 -6.484,0.326 -6.465,0.304 -6.446,0.282 -6.425,0.263 -6.403,0.244 -6.381,0.226 -6.358,0.21 -6.334,0.194 -6.31,0.181 -6.285,0.168 -6.26,0.156 -6.234,0.146 -6.208,0.137 -6.181,0.129 -6.154,0.122 -6.126,0.117 -6.099,0.113 -6.071,0.111 -6.043,0.109 h 0.028 l 0.028,0.002 0.028,0.003 0.028,0.004 0.028,0.006 0.027,0.007 0.027,0.009 0.028,0.009 0.027,0.011 0.026,0.013 0.026,0.014 0.025,0.015 0.025,0.018 0.024,0.017 0.022,0.019 0.021,0.019 0.021,0.022 0.018,0.021 0.018,0.022 0.016,0.023 0.016,0.024 0.014,0.024 0.013,0.026 0.011,0.025 0.011,0.025 0.009,0.028 0.008,0.026 0.006,0.027 0.006,0.028 0.003,0.027 0.003,0.027 0.001,0.029 V 0.707 L -5.452,0.734 -5.455,0.763 -5.459,0.791 -5.465,0.818 -5.472,0.847 -5.48,0.874 -5.49,0.9 -5.501,0.928 -5.513,0.954 -5.527,0.98 -5.623,1.143 -5.719,1.325 -5.833,1.568 -5.95,1.862 -6.005,2.024 -6.056,2.195 -6.1,2.373 -6.135,2.557 -6.161,2.745 -6.175,2.936 V 3.15 l 0.015,0.306 0.03,0.283 0.04,0.26 0.029,0.149 L -0.85,0.143 -0.815,0.12 -0.78,0.098 -0.745,0.078 -0.708,0.06 -0.671,0.042 -0.634,0.026 -0.596,0.013 -0.557,0 l 0.039,-0.01 0.039,-0.01 0.04,-0.006 0.04,-0.006 0.04,-0.004 0.04,-0.003 0.058,-0.001 0.034,0.002 0.036,0.002 0.034,0.004 0.035,0.005 0.035,0.006 0.035,0.007 z m 2.56,-2.427 0.204,0.318 0.193,0.323 0.179,0.33 0.168,0.335 0.155,0.34 0.143,0.345 0.129,0.351 L 3.849,0.27 3.953,0.628 4.044,0.99 4.123,1.356 4.188,1.726 4.24,2.098 4.279,2.472 4.304,2.849 4.316,3.234 4.304,3.621 4.279,3.998 4.24,4.372 4.188,4.744 4.123,5.113 4.044,5.479 3.953,5.842 3.849,6.2 3.731,6.555 3.602,6.905 3.459,7.251 3.304,7.591 3.136,7.926 2.957,8.256 2.764,8.579 2.56,8.896 2.542,8.921 2.524,8.944 2.505,8.966 2.485,8.987 2.464,9.007 2.442,9.025 2.419,9.043 2.396,9.059 2.372,9.074 2.347,9.088 2.322,9.1 2.296,9.111 2.271,9.121 2.244,9.13 2.217,9.137 2.189,9.143 2.162,9.147 2.134,9.151 2.106,9.153 2.079,9.154 2.051,9.153 2.022,9.151 1.995,9.148 1.967,9.144 1.939,9.138 1.912,9.13 1.884,9.121 1.857,9.111 1.831,9.1 1.804,9.086 1.779,9.071 1.753,9.056 1.729,9.038 1.706,9.021 1.684,9.001 1.663,8.98 1.643,8.96 1.625,8.938 1.607,8.915 1.591,8.892 1.576,8.868 1.562,8.843 1.55,8.818 1.539,8.792 1.529,8.767 1.52,8.739 1.513,8.713 1.507,8.686 1.502,8.658 1.499,8.63 1.496,8.603 V 8.574 8.547 L 1.498,8.519 1.501,8.49 1.506,8.463 1.512,8.435 1.52,8.407 1.528,8.38 1.539,8.354 1.55,8.326 1.563,8.3 1.578,8.274 1.862,7.825 2.027,7.536 2.181,7.241 2.324,6.941 2.456,6.638 2.577,6.329 2.687,6.017 2.785,5.7 2.872,5.38 2.947,5.057 3.011,4.731 3.063,4.402 3.104,4.071 3.133,3.738 3.153,3.234 3.143,2.899 3.12,2.564 3.085,2.232 3.039,1.902 2.981,1.575 2.911,1.251 2.83,0.93 2.737,0.611 2.633,0.297 2.518,-0.014 2.392,-0.32 2.254,-0.622 2.105,-0.919 1.946,-1.211 1.775,-1.498 1.578,-1.805 1.563,-1.83 1.55,-1.856 1.539,-1.883 1.528,-1.91 1.52,-1.937 1.512,-1.965 1.506,-1.993 1.501,-2.021 1.498,-2.049 1.496,-2.076 V -2.104 -2.133 L 1.499,-2.16 1.502,-2.188 1.507,-2.216 1.513,-2.243 1.52,-2.27 1.529,-2.296 1.539,-2.322 1.55,-2.348 1.562,-2.373 1.576,-2.397 1.591,-2.422 1.607,-2.445 1.625,-2.468 1.643,-2.49 1.663,-2.511 1.684,-2.531 1.706,-2.55 1.729,-2.568 1.763,-2.592 1.782,-2.604 1.801,-2.614 1.82,-2.625 1.84,-2.634 1.86,-2.643 1.88,-2.65 1.9,-2.657 l 0.02,-0.006 0.021,-0.005 0.021,-0.005 0.02,-0.004 0.021,-0.003 0.021,-0.002 0.021,-0.002 0.021,-10e-4 0.028,10e-4 0.035,0.002 0.035,0.004 0.034,0.006 0.034,0.009 0.034,0.011 0.032,0.011 0.033,0.015 0.031,0.017 0.03,0.017 0.029,0.021 0.029,0.022 0.027,0.024 0.025,0.026 0.024,0.027 0.023,0.03 z m 2.824,-1.514 0.326,0.526 0.301,0.543 0.275,0.556 0.249,0.567 0.01,0.028 0.01,0.028 0.007,0.028 0.007,0.028 0.004,0.03 0.004,0.028 0.002,0.028 v 0.029 L 6.578,-1.494 6.576,-1.466 6.572,-1.438 6.567,-1.411 6.561,-1.384 6.553,-1.356 6.544,-1.33 6.534,-1.305 6.522,-1.278 6.51,-1.254 6.496,-1.229 6.481,-1.206 6.465,-1.183 6.448,-1.161 6.43,-1.14 6.41,-1.119 6.39,-1.099 6.368,-1.08 6.346,-1.062 6.322,-1.046 6.298,-1.03 6.272,-1.016 6.246,-1.003 6.218,-0.99 6.19,-0.979 6.162,-0.971 6.134,-0.963 6.105,-0.957 6.077,-0.952 6.049,-0.949 6.02,-0.947 5.992,-0.946 5.963,-0.947 5.936,-0.95 5.908,-0.953 5.88,-0.959 5.853,-0.965 5.826,-0.973 5.799,-0.981 5.773,-0.991 5.748,-1.003 5.723,-1.016 5.699,-1.029 5.675,-1.044 5.652,-1.061 5.63,-1.077 5.608,-1.096 5.588,-1.115 5.568,-1.136 5.55,-1.157 5.532,-1.18 5.515,-1.203 5.5,-1.228 5.485,-1.253 5.472,-1.279 5.262,-1.761 5.014,-2.27 4.742,-2.766 4.394,-3.333 4.38,-3.359 4.367,-3.386 4.355,-3.412 4.346,-3.439 4.337,-3.467 4.33,-3.495 4.325,-3.522 4.32,-3.551 4.317,-3.578 4.316,-3.606 4.315,-3.635 4.317,-3.662 4.319,-3.69 4.323,-3.718 4.328,-3.745 4.335,-3.772 4.342,-3.799 4.352,-3.826 4.362,-3.852 4.373,-3.877 4.386,-3.902 4.4,-3.927 4.415,-3.95 l 0.017,-0.024 0.017,-0.022 0.019,-0.022 0.02,-0.02 0.021,-0.021 0.023,-0.018 0.023,-0.019 0.025,-0.016 0.019,-0.012 0.018,-0.011 0.019,-0.01 0.019,-0.008 0.02,-0.009 0.019,-0.008 0.02,-0.007 0.02,-0.006 0.02,-0.005 0.02,-0.005 0.02,-0.004 0.021,-0.003 0.02,-0.003 0.02,-0.002 0.021,-0.001 h 0.02 l 0.036,0.001 0.035,0.003 0.035,0.006 0.035,0.008 0.034,0.008 0.034,0.012 0.033,0.014 0.032,0.016 0.031,0.018 0.03,0.019 0.029,0.022 0.028,0.023 0.026,0.027 0.025,0.027 0.024,0.029 z M 6.772,0.575 6.748,0.576 6.723,0.577 6.697,0.58 6.672,0.584 6.643,0.59 6.614,0.597 6.586,0.605 6.559,0.615 6.532,0.627 6.506,0.64 6.481,0.652 6.457,0.668 6.434,0.684 6.411,0.7 6.39,0.719 6.369,0.737 6.349,0.757 6.331,0.778 6.313,0.8 6.296,0.822 6.281,0.845 6.267,0.869 6.253,0.894 6.241,0.919 6.23,0.944 6.221,0.971 6.212,0.998 6.205,1.025 6.199,1.053 6.195,1.081 6.192,1.109 6.19,1.139 V 1.168 L 6.191,1.197 6.194,1.227 6.265,1.686 6.323,2.18 6.361,2.676 6.378,3.173 6.355,3.89 6.32,4.323 6.27,4.755 6.205,5.183 6.125,5.607 6.029,6.029 5.92,6.446 5.795,6.858 5.657,7.267 5.504,7.67 5.336,8.067 5.155,8.458 4.959,8.844 4.75,9.223 4.394,9.803 4.38,9.829 4.367,9.855 4.355,9.883 4.346,9.909 4.337,9.937 4.33,9.965 4.325,9.992 4.32,10.021 l -0.003,0.027 -0.001,0.028 -10e-4,0.028 0.002,0.028 0.002,0.028 0.004,0.028 0.005,0.027 0.007,0.027 0.007,0.028 0.01,0.026 0.01,0.025 0.011,0.026 0.013,0.025 0.014,0.024 0.015,0.024 0.017,0.023 0.017,0.023 0.019,0.021 0.02,0.021 0.021,0.02 0.023,0.019 0.023,0.018 0.025,0.017 0.025,0.016 0.026,0.014 0.027,0.013 0.027,0.011 0.027,0.01 0.027,0.008 0.028,0.007 0.027,0.006 0.029,0.004 0.028,0.003 0.027,0.002 H 4.907 L 4.935,10.675 4.962,10.672 4.99,10.668 5.018,10.663 5.044,10.657 5.071,10.649 5.098,10.64 5.124,10.63 5.149,10.618 5.174,10.605 5.199,10.592 5.223,10.576 5.246,10.56 5.268,10.542 5.29,10.523 5.311,10.503 5.331,10.482 5.35,10.46 5.367,10.437 5.757,9.803 5.987,9.388 6.201,8.965 6.4,8.536 6.583,8.101 6.751,7.659 6.903,7.212 7.04,6.76 7.16,6.303 7.264,5.841 7.352,5.375 7.423,4.906 7.478,4.434 7.516,3.958 7.542,3.24 7.522,2.615 7.48,2.071 7.417,1.528 7.339,1.031 7.333,1.005 7.325,0.98 7.317,0.955 7.308,0.932 7.297,0.908 7.286,0.885 7.273,0.862 7.26,0.841 7.246,0.82 7.231,0.8 7.215,0.78 7.198,0.762 7.181,0.744 7.163,0.727 7.144,0.71 7.125,0.694 7.104,0.68 7.083,0.666 7.062,0.653 7.041,0.642 7.018,0.63 6.995,0.62 6.972,0.61 6.948,0.603 6.924,0.596 6.899,0.59 6.875,0.584 6.849,0.58 6.824,0.577 6.798,0.576 Z" /></g></g></svg>
