<?xml version="1.0" encoding="UTF-8" standalone="no"?>
<svg
   xmlns:dc="http://purl.org/dc/elements/1.1/"
   xmlns:cc="http://creativecommons.org/ns#"
   xmlns:rdf="http://www.w3.org/1999/02/22-rdf-syntax-ns#"
   xmlns:svg="http://www.w3.org/2000/svg"
   xmlns="http://www.w3.org/2000/svg"
   xmlns:sodipodi="http://sodipodi.sourceforge.net/DTD/sodipodi-0.dtd"
   xmlns:inkscape="http://www.inkscape.org/namespaces/inkscape"
   inkscape:version="1.0 (4035a4f, 2020-05-01)"
   sodipodi:docname="cut_NFC_BusinessCard.svg"
   viewBox="0 0 816 1056"
   height="1056"
   width="816"
   xml:space="preserve"
   id="svg10"
   version="1.1"><metadata
     id="metadata16"><rdf:RDF><cc:Work
         rdf:about=""><dc:format>image/svg+xml</dc:format><dc:type
           rdf:resource="http://purl.org/dc/dcmitype/StillImage" /><dc:title></dc:title></cc:Work></rdf:RDF></metadata><defs
     id="defs14"><clipPath
       id="clipPath26"
       clipPathUnits="userSpaceOnUse"><path
         id="path24"
         d="M 0,792 H 612 V 0 H 0 Z" /></clipPath></defs><sodipodi:namedview
     inkscape:current-layer="g18"
     inkscape:window-maximized="0"
     inkscape:window-y="223"
     inkscape:window-x="1921"
     inkscape:cy="528"
     inkscape:cx="408"
     inkscape:zoom="0.69602273"
     showgrid="false"
     id="namedview12"
     inkscape:window-height="480"
     inkscape:window-width="813"
     inkscape:pageshadow="2"
     inkscape:pageopacity="0"
     guidetolerance="10"
     gridtolerance="10"
     objecttolerance="10"
     borderopacity="1"
     bordercolor="#666666"
     pagecolor="#ffffff" /><g
     transform="matrix(1.3333333,0,0,-1.3333333,0,1056)"
     inkscape:label="cut_NFC_BusinessCard"
     inkscape:groupmode="layer"
     id="g18"><g
       style="fill:#ff0000"
       id="g20"><g
         style="fill:#ff0000"
         clip-path="url(#clipPath26)"
         id="g22"><g
           style="fill:#ff0000"
           transform="translate(215.6636,435.9521)"
           id="g28"><path
             id="path30"
             style="fill:#ff0000;fill-opacity:1;fill-rule:nonzero;stroke:none"
             d="M 0,0 0.019,0.022 0.038,0.044 0.056,0.067 0.075,0.089 0.094,0.111 0.113,0.134 0.131,0.156 0.15,0.178 0.169,0.201 0.188,0.223 0.207,0.245 0.226,0.268 0.245,0.29 0.263,0.312 0.282,0.334 0.301,0.356 0.32,0.379 0.338,0.401 0.357,0.423 0.376,0.446 0.395,0.468 0.414,0.49 0.433,0.513 0.451,0.535 0.47,0.557 0.489,0.58 0.508,0.602 0.526,0.624 0.545,0.646 0.564,0.668 0.583,0.691 0.602,0.713 0.621,0.735 0.639,0.758 0.658,0.78 0.677,0.802 0.696,0.825 0.714,0.847 0.733,0.869 0.752,0.892 0.771,0.914 0.79,0.936 0.809,0.958 0.828,0.981 0.846,1.003 0.865,1.025 0.884,1.048 0.903,1.07 0.921,1.092 0.94,1.114 0.959,1.137 0.978,1.159 0.997,1.181 1.016,1.204 1.034,1.226 1.053,1.248 1.072,1.271 1.091,1.293 1.109,1.315 1.128,1.337 1.147,1.36 1.166,1.382 1.185,1.404 1.204,1.427 1.222,1.449 1.241,1.471 1.26,1.493 1.279,1.516 1.297,1.538 1.316,1.56 1.335,1.583 1.354,1.605 1.373,1.627 1.392,1.649 1.411,1.672 1.429,1.694 1.448,1.716 1.467,1.739 1.486,1.761 1.504,1.783 1.523,1.806 1.542,1.828 1.561,1.85 1.58,1.873 1.599,1.895 1.617,1.917 1.636,1.939 1.655,1.961 1.674,1.984 1.692,2.006 1.711,2.028 1.73,2.051 1.749,2.073 1.768,2.095 1.787,2.118 1.805,2.14 1.824,2.162 1.843,2.185 1.862,2.207 1.881,2.229 1.899,2.251 1.918,2.273 1.937,2.296 1.956,2.318 1.975,2.34 1.994,2.363 2.012,2.385 2.031,2.407 2.05,2.43 2.069,2.452 2.087,2.474 2.106,2.497 2.125,2.519 2.144,2.541 2.163,2.563 2.182,2.585 2.2,2.608 2.219,2.63 2.238,2.652 2.257,2.675 2.275,2.697 2.294,2.719 2.313,2.742 2.332,2.764 2.351,2.786 2.37,2.809 2.388,2.831 2.407,2.853 C 2.414,2.845 2.42,2.836 2.427,2.828 L 2.446,2.803 C 2.452,2.795 2.458,2.787 2.465,2.779 2.472,2.771 2.478,2.762 2.485,2.754 2.491,2.746 2.498,2.738 2.504,2.73 2.511,2.722 2.517,2.714 2.523,2.706 2.53,2.698 2.537,2.69 2.543,2.682 2.549,2.674 2.556,2.667 2.563,2.658 2.569,2.651 2.575,2.643 2.582,2.635 2.588,2.627 2.595,2.62 2.602,2.612 2.608,2.604 2.614,2.596 2.621,2.589 2.627,2.581 2.634,2.573 2.64,2.565 2.647,2.558 2.653,2.551 2.66,2.543 2.667,2.536 2.673,2.528 2.68,2.521 2.686,2.513 2.692,2.505 2.699,2.498 2.706,2.491 2.712,2.483 2.719,2.476 2.725,2.469 2.732,2.461 2.738,2.454 2.745,2.447 2.751,2.439 2.758,2.432 2.765,2.425 2.771,2.418 2.778,2.411 2.784,2.403 2.791,2.396 2.797,2.389 2.804,2.382 2.811,2.375 2.817,2.368 2.824,2.361 2.83,2.354 2.837,2.347 2.843,2.34 2.85,2.333 2.856,2.326 2.863,2.319 2.87,2.313 2.876,2.306 2.883,2.299 2.89,2.292 2.896,2.285 2.903,2.278 2.909,2.271 2.916,2.265 2.923,2.258 2.929,2.251 2.936,2.245 l 0.02,-0.02 C 2.962,2.218 2.969,2.212 2.976,2.206 2.982,2.199 2.989,2.192 2.996,2.186 3.002,2.179 3.009,2.173 3.016,2.167 3.022,2.16 3.029,2.154 3.036,2.147 3.042,2.141 3.049,2.135 3.056,2.128 3.062,2.122 3.069,2.116 3.075,2.11 3.082,2.104 3.089,2.098 3.096,2.091 3.102,2.085 3.109,2.079 3.116,2.073 3.122,2.067 3.129,2.061 3.136,2.055 3.142,2.049 3.149,2.043 3.156,2.037 3.163,2.031 3.169,2.025 3.176,2.019 L 3.196,2.001 C 3.203,1.996 3.209,1.99 3.216,1.984 3.223,1.979 3.23,1.973 3.236,1.967 3.243,1.961 3.25,1.956 3.257,1.95 3.264,1.944 3.271,1.939 3.277,1.933 3.284,1.928 3.291,1.922 3.297,1.917 L 3.318,1.9 C 3.325,1.895 3.332,1.89 3.338,1.884 3.345,1.878 3.352,1.874 3.358,1.868 L 3.379,1.852 C 3.386,1.847 3.393,1.842 3.399,1.836 3.406,1.832 3.413,1.826 3.42,1.821 3.427,1.816 3.434,1.811 3.44,1.806 3.447,1.801 3.454,1.796 3.461,1.791 3.468,1.786 3.475,1.781 3.481,1.776 L 3.502,1.761 C 3.509,1.756 3.516,1.752 3.522,1.747 3.529,1.742 3.537,1.737 3.543,1.732 3.55,1.728 3.557,1.723 3.564,1.719 3.571,1.714 3.578,1.709 3.585,1.705 3.592,1.7 3.599,1.695 3.605,1.691 L 3.626,1.678 C 3.633,1.673 3.64,1.668 3.647,1.664 3.654,1.66 3.661,1.656 3.668,1.651 3.675,1.647 3.682,1.643 3.689,1.638 3.696,1.634 3.703,1.63 3.71,1.625 3.717,1.622 3.724,1.617 3.73,1.613 3.738,1.609 3.745,1.605 3.751,1.601 3.759,1.597 3.766,1.593 3.772,1.589 3.78,1.584 3.787,1.581 3.794,1.577 3.801,1.573 3.808,1.569 3.815,1.565 3.822,1.561 3.829,1.557 3.836,1.553 3.843,1.55 3.85,1.546 3.857,1.542 3.864,1.539 3.871,1.535 3.878,1.531 3.885,1.527 3.892,1.524 3.899,1.52 3.907,1.517 3.914,1.513 3.921,1.509 3.928,1.506 3.935,1.502 3.942,1.499 3.949,1.495 3.956,1.492 3.963,1.488 3.97,1.485 3.978,1.482 3.985,1.479 3.992,1.475 3.999,1.472 4.006,1.468 4.013,1.465 4.021,1.462 4.027,1.458 4.035,1.456 4.042,1.452 4.049,1.449 4.056,1.446 4.063,1.443 4.07,1.44 4.078,1.437 4.085,1.434 4.092,1.431 L 4.114,1.422 C 4.121,1.419 4.128,1.416 4.135,1.413 4.143,1.41 4.149,1.407 4.157,1.404 4.164,1.401 4.171,1.399 4.179,1.396 4.186,1.393 4.193,1.391 4.2,1.388 4.208,1.385 4.215,1.382 4.222,1.38 4.229,1.377 4.237,1.375 4.244,1.372 4.251,1.37 4.258,1.367 4.266,1.365 4.273,1.362 4.28,1.359 4.288,1.357 4.295,1.355 4.302,1.353 4.31,1.35 4.317,1.348 4.324,1.345 4.332,1.343 4.339,1.341 4.346,1.338 4.354,1.336 4.361,1.334 4.368,1.332 4.375,1.33 4.383,1.328 4.39,1.326 4.398,1.323 4.405,1.321 4.413,1.319 4.42,1.317 4.427,1.315 4.435,1.313 4.442,1.311 4.449,1.309 4.457,1.307 4.464,1.306 L 4.486,1.3 C 4.494,1.298 4.501,1.296 4.509,1.294 4.516,1.293 4.523,1.291 4.531,1.29 4.539,1.288 4.546,1.286 4.554,1.285 4.561,1.283 4.568,1.281 4.576,1.28 4.583,1.278 4.591,1.276 4.599,1.275 4.606,1.273 4.613,1.272 4.621,1.271 4.628,1.27 4.636,1.268 4.644,1.267 4.651,1.265 4.659,1.264 4.666,1.263 4.674,1.261 4.681,1.26 4.688,1.259 4.696,1.258 4.704,1.256 4.711,1.255 4.719,1.254 4.727,1.253 4.734,1.252 4.742,1.251 4.75,1.25 4.757,1.249 4.765,1.248 4.772,1.247 4.78,1.246 4.787,1.245 4.795,1.244 4.803,1.243 4.81,1.242 4.818,1.241 4.826,1.241 4.833,1.24 4.841,1.239 4.849,1.238 4.856,1.237 4.864,1.237 4.872,1.236 4.879,1.235 4.887,1.235 4.895,1.234 4.902,1.233 4.91,1.233 4.917,1.232 L 4.941,1.231 C 4.949,1.23 4.956,1.23 4.964,1.229 c 0.008,0 0.015,0 0.023,0 C 4.995,1.228 5.003,1.228 5.011,1.228 5.019,1.227 5.026,1.227 5.034,1.227 c 0.008,0 0.015,0 0.023,0 C 5.065,1.226 5.073,1.226 5.081,1.226 h 0.023 0.03 c 0.01,0 0.019,0.001 0.029,0.001 0.01,0 0.02,0 0.029,0 0.01,10e-4 0.02,10e-4 0.03,10e-4 0.009,0.001 0.019,0.001 0.028,0.001 0.01,10e-4 0.02,10e-4 0.029,0.002 0.01,0 0.019,10e-4 0.029,0.002 0.009,0 0.018,10e-4 0.027,0.002 0.01,10e-4 0.019,0.002 0.028,0.002 0.01,10e-4 0.019,0.002 0.028,0.003 L 5.419,1.243 C 5.428,1.244 5.437,1.245 5.446,1.247 5.455,1.248 5.464,1.249 5.473,1.25 5.482,1.251 5.491,1.252 5.5,1.254 5.509,1.255 5.518,1.256 5.527,1.258 L 5.553,1.262 C 5.562,1.264 5.571,1.266 5.58,1.267 5.588,1.269 5.597,1.271 5.605,1.272 5.614,1.274 5.623,1.275 5.631,1.277 5.64,1.279 5.648,1.281 5.657,1.283 5.666,1.285 5.674,1.287 5.682,1.289 5.69,1.291 5.699,1.292 5.708,1.295 5.716,1.297 5.724,1.299 5.732,1.301 5.741,1.303 5.749,1.306 5.757,1.308 5.765,1.31 5.773,1.312 5.781,1.315 5.79,1.317 5.798,1.319 5.806,1.322 5.813,1.324 5.822,1.327 5.83,1.33 5.838,1.332 5.846,1.334 5.854,1.337 5.861,1.34 5.869,1.343 5.877,1.345 5.885,1.348 5.893,1.351 5.9,1.354 L 5.924,1.362 C 5.932,1.365 5.939,1.368 5.947,1.371 5.954,1.374 5.962,1.377 5.969,1.38 5.977,1.383 5.984,1.387 5.992,1.39 6,1.393 6.007,1.396 6.014,1.399 L 6.036,1.41 6.058,1.42 C 6.065,1.423 6.072,1.427 6.08,1.431 6.087,1.434 6.094,1.437 6.101,1.441 6.108,1.445 6.115,1.449 6.122,1.453 6.129,1.456 6.136,1.46 6.143,1.464 l 0.021,0.012 0.02,0.011 C 6.191,1.492 6.198,1.496 6.205,1.5 6.211,1.504 6.218,1.508 6.225,1.512 6.231,1.517 6.238,1.521 6.244,1.525 6.251,1.529 6.257,1.534 6.264,1.538 6.27,1.542 6.277,1.547 6.283,1.552 L 6.302,1.565 C 6.309,1.57 6.315,1.574 6.321,1.579 6.327,1.584 6.333,1.588 6.34,1.593 6.346,1.598 6.352,1.603 6.358,1.607 6.364,1.612 6.37,1.618 6.376,1.623 6.382,1.627 6.388,1.632 6.395,1.637 6.4,1.643 6.406,1.647 6.412,1.653 6.418,1.658 6.424,1.663 6.43,1.668 6.436,1.673 6.441,1.679 6.447,1.684 6.453,1.689 6.458,1.695 6.464,1.7 6.47,1.706 6.475,1.711 6.481,1.717 L 6.498,1.733 C 6.503,1.739 6.508,1.745 6.514,1.75 L 6.53,1.768 c 0.005,0.005 0.011,0.011 0.016,0.017 0.005,0.006 0.01,0.012 0.016,0.018 0.004,0.006 0.01,0.011 0.015,0.018 0.005,0.006 0.01,0.012 0.015,0.018 0.005,0.006 0.01,0.013 0.015,0.018 l 0.015,0.019 0.014,0.02 c 0.005,0.006 0.01,0.012 0.014,0.019 0.005,0.006 0.01,0.013 0.015,0.02 0.004,0.006 0.009,0.013 0.013,0.02 0.005,0.006 0.009,0.013 0.014,0.02 l 0.013,0.02 C 6.709,2.002 6.714,2.009 6.718,2.016 6.723,2.023 6.727,2.03 6.731,2.037 6.735,2.044 6.739,2.051 6.744,2.058 6.748,2.065 6.752,2.073 6.756,2.08 6.76,2.087 6.764,2.094 6.768,2.102 6.772,2.109 6.776,2.116 6.78,2.124 L 6.792,2.146 C 6.795,2.154 6.799,2.161 6.803,2.169 6.807,2.176 6.811,2.184 6.814,2.192 6.818,2.199 6.822,2.207 6.825,2.215 6.829,2.223 6.833,2.23 6.836,2.238 6.839,2.246 6.843,2.254 6.846,2.262 6.85,2.27 6.853,2.278 6.856,2.286 6.86,2.294 6.863,2.302 6.867,2.311 6.87,2.318 6.873,2.327 6.876,2.335 6.879,2.343 6.883,2.352 6.886,2.36 6.889,2.368 6.892,2.376 6.895,2.385 6.898,2.393 6.901,2.402 6.904,2.41 6.907,2.418 6.91,2.427 6.913,2.436 6.916,2.444 6.918,2.453 6.921,2.461 6.924,2.47 6.927,2.479 6.93,2.488 6.933,2.497 6.935,2.505 6.938,2.514 6.94,2.523 6.943,2.532 6.946,2.541 6.948,2.55 6.951,2.559 6.953,2.568 6.956,2.577 6.958,2.586 6.96,2.595 6.963,2.604 6.965,2.613 6.968,2.623 6.97,2.632 6.972,2.641 6.975,2.65 6.977,2.66 6.979,2.669 6.981,2.678 6.983,2.688 6.985,2.697 6.987,2.707 6.989,2.716 6.992,2.726 6.994,2.735 6.996,2.745 6.998,2.754 7,2.764 c 0.001,0.009 0.003,0.019 0.005,0.029 0.002,0.01 0.003,0.02 0.005,0.029 0.002,0.01 0.004,0.02 0.006,0.03 0.001,0.01 0.003,0.02 0.005,0.03 0.001,0.01 0.002,0.02 0.004,0.03 10e-4,0.01 0.003,0.02 0.004,0.03 0.002,0.011 0.003,0.021 0.004,0.031 0.002,0.01 0.003,0.021 0.004,0.031 0.002,0.01 0.003,0.02 0.004,0.031 10e-4,0.01 0.002,0.021 0.003,0.031 0.001,0.011 0.002,0.021 0.003,0.032 L 7.05,3.13 7.053,3.163 c 0.001,0.01 0.002,0.021 0.003,0.032 0,0.011 0.001,0.022 0.002,0.033 0,0.011 0.001,0.022 0.002,0.033 0,0.011 0.001,0.022 0.001,0.033 l 0.001,0.034 c 10e-4,0.011 10e-4,0.022 10e-4,0.033 0.001,0.012 0.001,0.023 0.001,0.035 0.001,0.011 0.001,0.022 0.001,0.034 0,0.011 0,0.023 0,0.034 V 3.5 3.552 3.604 3.657 3.709 3.762 3.814 3.866 3.919 3.971 4.023 4.076 4.128 4.181 4.233 4.286 4.338 4.391 4.443 4.495 4.548 4.6 4.652 4.705 4.757 4.81 4.862 4.915 4.967 5.02 5.072 5.125 5.177 5.229 5.282 5.334 5.386 5.439 5.491 5.543 5.596 5.648 5.701 5.753 5.806 5.858 5.911 5.963 6.015 6.068 6.12 6.173 6.225 6.277 6.33 6.382 6.435 6.487 6.54 6.592 6.645 6.697 6.749 6.802 6.854 6.906 6.959 7.011 7.063 7.116 7.168 7.221 7.273 7.326 7.378 7.431 7.483 7.535 7.588 7.64 7.693 7.745 7.797 7.85 7.902 7.955 8.007 8.06 8.112 8.165 8.217 8.269 8.322 8.374 8.426 8.479 8.531 8.583 8.636 8.688 8.741 8.793 8.846 8.898 8.951 9.003 9.056 9.108 9.16 9.212 9.265 9.317 9.37 9.422 9.475 9.527 9.58 v 0.052 0.053 0.052 0.052 0.053 0.052 0.052 0.053 0.052 0.053 0.052 0.052 L 7.023,10.178 6.981,10.146 6.939,10.116 6.897,10.085 6.855,10.054 6.812,10.023 6.771,9.992 6.729,9.961 6.687,9.93 6.644,9.899 6.602,9.869 6.56,9.837 6.518,9.807 6.476,9.776 6.434,9.745 6.391,9.714 6.349,9.683 6.307,9.652 6.265,9.621 6.223,9.59 6.181,9.559 6.139,9.528 6.096,9.498 6.054,9.466 6.012,9.436 5.97,9.405 5.928,9.374 5.886,9.343 5.844,9.312 5.801,9.281 5.759,9.25 5.717,9.219 5.675,9.188 5.633,9.157 5.591,9.126 5.548,9.095 5.506,9.064 5.464,9.034 5.422,9.003 5.38,8.972 5.338,8.941 5.296,8.91 5.253,8.879 5.211,8.848 5.169,8.817 5.127,8.786 5.085,8.755 5.043,8.725 5,8.693 4.958,8.663 4.917,8.632 4.875,8.601 4.832,8.57 4.79,8.539 4.748,8.508 4.706,8.477 4.664,8.446 4.622,8.416 4.579,8.384 4.537,8.354 4.495,8.323 4.453,8.292 4.411,8.261 4.369,8.23 4.327,8.199 4.284,8.168 4.242,8.137 4.2,8.106 4.158,8.075 4.116,8.044 4.074,8.013 4.032,7.982 3.989,7.952 3.947,7.92 3.905,7.89 3.863,7.859 3.821,7.828 3.779,7.797 3.736,7.766 3.694,7.735 3.652,7.704 3.61,7.673 3.568,7.643 3.526,7.611 3.483,7.581 3.441,7.55 3.399,7.519 3.357,7.488 3.315,7.457 3.273,7.426 3.231,7.395 3.188,7.364 3.146,7.333 3.104,7.302 3.062,7.271 3.02,7.24 2.978,7.209 2.936,7.179 2.894,7.147 2.852,7.117 2.81,7.086 2.767,7.055 2.725,7.024 2.683,6.993 2.641,6.962 2.599,6.931 2.557,6.9 2.515,6.87 2.472,6.838 2.43,6.808 2.388,6.777 2.346,6.746 2.304,6.715 2.262,6.684 2.219,6.653 2.177,6.622 2.135,6.591 2.093,6.56 2.051,6.529 2.009,6.499 1.967,6.467 1.924,6.437 1.882,6.406 1.84,6.375 1.798,6.344 1.756,6.313 1.714,6.282 1.671,6.251 v 0.04 0.04 0.04 0.04 0.04 0.04 0.04 0.04 0.04 0.04 0.04 0.04 0.04 0.041 0.04 0.04 0.04 0.04 0.04 0.04 0.04 0.04 0.04 0.04 0.04 0.04 0.04 0.04 0.04 0.04 0.04 0.04 0.04 0.04 0.04 0.04 0.04 0.04 0.04 0.041 0.04 0.04 0.04 0.04 0.04 0.04 0.04 0.04 0.04 0.04 0.04 0.04 0.04 0.04 0.04 0.04 0.04 0.04 0.04 0.04 0.04 0.04 0.04 0.04 0.041 0.04 0.04 0.04 0.04 0.04 0.04 0.04 0.04 0.04 0.04 0.04 0.04 0.04 0.04 0.04 0.04 0.04 0.04 0.04 0.04 0.04 0.04 0.04 0.04 0.04 0.041 0.04 0.04 0.04 0.04 0.04 0.04 0.04 0.04 0.04 0.04 0.04 0.04 0.04 0.04 0.04 0.04 0.04 0.04 0.04 0.04 0.04 0.04 0.04 0.04 0.041 0.04 0.04 0.04 0.04 0.04 0.04 0.04 0.04 0.04 0.04 0.04 0.04 l 0.077,0.056 0.076,0.056 0.076,0.055 0.077,0.057 0.076,0.055 0.076,0.056 0.077,0.056 0.076,0.056 0.076,0.056 0.076,0.056 0.077,0.056 0.076,0.055 0.076,0.057 0.076,0.055 0.077,0.056 0.076,0.056 0.076,0.056 0.076,0.056 0.077,0.056 0.076,0.055 0.076,0.056 0.077,0.056 0.076,0.056 0.076,0.056 0.077,0.056 0.076,0.056 0.076,0.055 0.076,0.056 0.076,0.056 0.077,0.056 0.076,0.056 0.076,0.056 0.076,0.056 0.077,0.055 0.076,0.057 0.076,0.055 0.077,0.056 0.076,0.056 0.076,0.056 0.077,0.056 0.076,0.056 0.076,0.056 0.076,0.055 0.076,0.056 0.077,0.056 0.076,0.056 0.076,0.056 0.077,0.056 0.076,0.056 0.076,0.055 0.077,0.056 0.076,0.056 0.076,0.056 0.077,0.056 0.076,0.056 0.076,0.056 0.076,0.056 0.076,0.055 0.076,0.056 0.077,0.056 0.076,0.056 0.076,0.056 0.077,0.056 0.076,0.056 0.076,0.055 0.077,0.056 0.076,0.056 0.076,0.056 0.076,0.056 0.077,0.056 0.076,0.056 0.076,0.055 0.076,0.056 0.077,0.056 0.076,0.056 0.076,0.056 0.076,0.056 0.077,0.056 0.076,0.056 0.076,0.055 0.077,0.056 0.076,0.056 0.076,0.056 0.077,0.056 0.076,0.056 0.076,0.056 0.076,0.055 0.076,0.056 0.077,0.056 0.076,0.056 0.076,0.056 0.076,0.056 0.077,0.056 0.076,0.055 0.076,0.057 0.077,0.055 0.076,0.056 0.076,0.056 0.077,0.056 0.076,0.056 0.076,0.056 0.076,0.056 0.077,0.055 0.076,0.056 0.076,0.056 0.076,0.056 0.077,0.056 0.076,0.056 0.076,0.055 0.077,0.056 0.076,0.056 0.076,0.056 0.077,0.056 0.076,0.056 0.076,0.056 0.076,0.055 0.076,0.057 0.076,0.055 0.077,0.056 0.076,0.056 0.076,0.056 0.077,0.056 0.076,0.056 0.076,0.056 0.077,0.055 0.076,0.057 0.076,0.055 0.076,0.056 V 18.412 18.296 18.181 18.066 17.951 17.835 17.72 17.604 17.489 17.374 17.259 17.144 17.028 16.913 16.797 16.682 16.567 16.452 16.336 16.221 16.105 15.99 15.875 15.76 15.644 15.529 15.414 15.298 15.183 15.068 14.952 14.837 14.722 14.606 14.491 14.376 14.26 14.145 14.03 13.915 13.799 13.684 13.568 13.453 13.338 13.223 13.107 12.992 12.876 12.761 12.646 12.531 12.416 12.3 12.185 12.069 11.954 11.839 11.724 11.608 11.493 11.377 11.262 11.147 11.032 10.917 10.801 10.686 10.57 10.455 10.34 10.225 10.109 9.994 9.878 9.763 9.648 9.533 9.417 9.302 9.187 9.071 8.956 8.841 8.726 8.61 8.495 8.379 8.264 8.149 8.034 7.918 7.803 7.687 7.572 7.457 7.342 7.227 7.111 6.996 6.88 6.765 6.65 6.535 6.419 6.304 6.188 6.073 5.958 5.843 5.727 5.612 5.497 5.381 5.266 5.151 5.035 4.92 4.805 4.689 4.574 4.459 4.343 4.228 4.113 3.998 3.882 3.767 3.672 C 11.434,3.641 11.433,3.609 11.433,3.578 11.432,3.547 11.432,3.516 11.431,3.485 L 11.428,3.393 C 11.427,3.362 11.426,3.332 11.425,3.301 11.423,3.271 11.422,3.24 11.42,3.21 11.419,3.18 11.417,3.149 11.416,3.12 11.414,3.09 11.412,3.06 11.41,3.03 11.408,3 11.406,2.971 11.403,2.941 L 11.396,2.854 C 11.394,2.824 11.391,2.795 11.388,2.767 11.385,2.737 11.382,2.708 11.379,2.68 11.376,2.651 11.373,2.623 11.37,2.594 11.367,2.566 11.363,2.538 11.359,2.509 11.356,2.481 11.353,2.453 11.349,2.425 11.345,2.397 11.341,2.369 11.336,2.342 11.333,2.314 11.329,2.287 11.324,2.259 11.32,2.231 11.315,2.204 11.311,2.177 11.306,2.15 11.302,2.123 11.297,2.096 11.292,2.069 11.287,2.042 11.282,2.015 11.277,1.989 11.271,1.962 11.266,1.936 11.261,1.909 11.256,1.883 11.25,1.856 11.245,1.831 11.239,1.804 11.233,1.778 11.227,1.752 11.221,1.727 11.215,1.701 11.209,1.675 11.203,1.65 11.197,1.624 11.19,1.599 11.184,1.574 11.177,1.548 11.171,1.523 11.164,1.498 11.157,1.473 11.15,1.448 11.144,1.423 11.136,1.398 11.129,1.374 11.122,1.349 11.115,1.325 11.107,1.3 11.1,1.276 11.092,1.252 11.085,1.228 11.077,1.204 11.069,1.18 L 11.046,1.108 11.021,1.038 10.996,0.967 C 10.987,0.944 10.979,0.921 10.97,0.898 10.961,0.875 10.952,0.853 10.943,0.83 10.934,0.807 10.925,0.785 10.916,0.762 10.906,0.74 10.897,0.717 10.887,0.695 10.878,0.673 10.868,0.651 10.858,0.628 10.849,0.607 10.839,0.585 10.829,0.563 10.819,0.542 10.809,0.52 10.798,0.499 10.788,0.477 10.778,0.456 10.767,0.435 10.756,0.413 10.746,0.392 10.735,0.371 10.725,0.35 10.713,0.329 10.703,0.309 10.691,0.288 10.68,0.267 10.669,0.247 10.658,0.227 10.646,0.206 10.635,0.186 L 10.6,0.125 C 10.588,0.105 10.577,0.085 10.564,0.066 10.553,0.046 10.541,0.026 10.528,0.007 10.516,-0.012 10.503,-0.032 10.491,-0.051 10.479,-0.07 10.466,-0.089 10.454,-0.108 10.441,-0.127 10.428,-0.146 10.415,-0.165 10.402,-0.184 10.389,-0.202 10.375,-0.221 10.362,-0.239 10.349,-0.257 10.336,-0.276 L 10.295,-0.33 C 10.281,-0.348 10.268,-0.366 10.253,-0.384 10.24,-0.401 10.226,-0.419 10.211,-0.437 10.197,-0.454 10.183,-0.472 10.168,-0.489 10.154,-0.506 10.14,-0.523 10.125,-0.54 10.11,-0.557 10.096,-0.574 10.081,-0.591 l -0.045,-0.05 C 10.021,-0.657 10.005,-0.673 9.99,-0.689 9.975,-0.706 9.959,-0.722 9.943,-0.738 9.928,-0.754 9.912,-0.77 9.896,-0.786 9.88,-0.801 9.865,-0.817 9.849,-0.833 9.833,-0.848 9.816,-0.864 9.8,-0.879 9.784,-0.894 9.767,-0.909 9.75,-0.924 9.734,-0.939 9.717,-0.954 9.701,-0.969 9.684,-0.984 9.667,-0.998 9.65,-1.013 9.633,-1.027 9.616,-1.042 9.598,-1.056 9.581,-1.07 9.563,-1.084 9.546,-1.099 9.528,-1.112 9.511,-1.126 9.493,-1.14 9.476,-1.154 9.458,-1.167 9.439,-1.181 9.421,-1.195 9.403,-1.208 9.385,-1.221 9.367,-1.235 9.349,-1.248 9.33,-1.261 9.312,-1.274 9.293,-1.287 9.274,-1.299 9.256,-1.312 9.237,-1.325 9.218,-1.337 9.199,-1.35 9.18,-1.363 9.161,-1.375 9.142,-1.387 9.123,-1.399 9.103,-1.411 9.083,-1.423 9.064,-1.436 9.044,-1.447 9.025,-1.459 9.005,-1.471 8.985,-1.482 8.965,-1.494 8.945,-1.505 8.925,-1.517 8.905,-1.528 8.885,-1.539 8.864,-1.55 8.844,-1.561 8.824,-1.572 8.803,-1.583 8.782,-1.594 8.762,-1.604 8.741,-1.615 8.72,-1.625 8.699,-1.636 8.678,-1.646 8.657,-1.657 8.636,-1.667 8.615,-1.677 8.593,-1.687 8.572,-1.697 8.55,-1.707 8.529,-1.717 8.507,-1.726 8.485,-1.736 8.464,-1.746 8.442,-1.755 8.42,-1.764 8.398,-1.773 8.375,-1.783 8.354,-1.792 8.332,-1.801 8.309,-1.81 8.287,-1.819 8.264,-1.828 8.242,-1.836 8.219,-1.845 8.196,-1.854 8.173,-1.862 8.15,-1.87 8.127,-1.879 8.104,-1.887 8.082,-1.895 8.058,-1.903 8.035,-1.911 8.012,-1.919 7.988,-1.927 7.965,-1.935 7.941,-1.942 7.917,-1.95 7.894,-1.957 7.87,-1.965 7.846,-1.972 7.822,-1.979 7.798,-1.986 7.774,-1.994 7.75,-2 7.726,-2.007 L 7.652,-2.028 C 7.628,-2.034 7.603,-2.041 7.578,-2.047 7.554,-2.054 7.529,-2.06 7.503,-2.066 7.479,-2.072 7.454,-2.078 7.428,-2.084 7.403,-2.09 7.378,-2.096 7.353,-2.101 7.327,-2.107 7.301,-2.112 7.275,-2.118 7.25,-2.123 7.224,-2.128 7.198,-2.134 7.172,-2.139 7.146,-2.144 7.12,-2.149 7.094,-2.154 7.068,-2.158 7.042,-2.163 7.015,-2.168 6.989,-2.172 6.962,-2.177 6.936,-2.181 6.909,-2.186 6.882,-2.189 6.855,-2.194 6.828,-2.198 6.801,-2.202 6.774,-2.206 6.747,-2.209 6.72,-2.213 6.692,-2.217 6.665,-2.22 6.638,-2.224 6.61,-2.227 6.583,-2.23 6.555,-2.234 L 6.471,-2.243 C 6.443,-2.246 6.415,-2.249 6.387,-2.251 6.359,-2.254 6.331,-2.257 6.302,-2.259 6.274,-2.262 6.245,-2.264 6.216,-2.266 6.188,-2.268 6.159,-2.271 6.13,-2.272 6.102,-2.274 6.073,-2.276 6.043,-2.278 6.014,-2.28 5.985,-2.281 5.956,-2.283 5.927,-2.284 5.897,-2.285 5.868,-2.287 5.838,-2.288 5.809,-2.289 5.779,-2.29 5.749,-2.291 5.719,-2.292 5.689,-2.292 5.659,-2.293 5.629,-2.294 5.599,-2.294 5.569,-2.295 5.538,-2.295 5.508,-2.295 5.478,-2.296 5.447,-2.296 5.416,-2.296 H 5.363 c -0.018,10e-4 -0.035,10e-4 -0.053,10e-4 -0.018,0 -0.036,0 -0.053,10e-4 -0.018,0 -0.035,0 -0.053,10e-4 L 5.151,-2.292 5.099,-2.291 C 5.081,-2.29 5.063,-2.29 5.046,-2.289 5.029,-2.288 5.011,-2.287 4.994,-2.287 4.977,-2.286 4.959,-2.285 4.942,-2.284 4.924,-2.283 4.907,-2.282 4.89,-2.281 4.873,-2.28 4.855,-2.279 4.838,-2.278 4.82,-2.277 4.803,-2.276 4.786,-2.275 4.769,-2.273 4.751,-2.272 4.734,-2.271 4.717,-2.27 4.7,-2.269 4.683,-2.267 4.666,-2.266 4.648,-2.264 4.631,-2.263 4.614,-2.261 4.597,-2.26 4.58,-2.258 4.563,-2.257 4.546,-2.255 4.529,-2.253 4.512,-2.252 4.495,-2.25 4.478,-2.249 4.461,-2.247 4.444,-2.245 4.427,-2.243 4.41,-2.241 4.394,-2.239 4.376,-2.237 4.36,-2.235 4.343,-2.233 4.326,-2.231 4.309,-2.229 4.292,-2.228 4.275,-2.225 4.259,-2.223 4.242,-2.221 4.226,-2.219 4.208,-2.216 4.192,-2.214 4.175,-2.212 4.159,-2.209 4.142,-2.207 4.125,-2.205 4.109,-2.202 4.092,-2.2 4.076,-2.197 L 4.026,-2.19 C 4.009,-2.187 3.993,-2.185 3.977,-2.182 3.96,-2.179 3.943,-2.176 3.927,-2.173 3.911,-2.171 3.895,-2.168 3.878,-2.165 3.861,-2.162 3.845,-2.159 3.829,-2.156 3.813,-2.153 3.796,-2.15 3.78,-2.147 3.764,-2.144 3.748,-2.141 3.731,-2.138 3.715,-2.135 3.699,-2.131 3.683,-2.128 3.667,-2.125 3.65,-2.122 3.634,-2.118 3.618,-2.115 3.602,-2.111 3.586,-2.108 3.57,-2.104 3.554,-2.101 3.538,-2.097 3.522,-2.094 3.506,-2.09 3.49,-2.086 3.474,-2.083 3.458,-2.079 3.442,-2.076 3.427,-2.072 3.411,-2.068 3.395,-2.064 3.379,-2.06 3.363,-2.057 3.348,-2.052 3.332,-2.048 3.316,-2.044 3.3,-2.041 3.285,-2.037 3.269,-2.032 3.253,-2.028 3.238,-2.024 3.222,-2.02 3.207,-2.016 3.191,-2.012 3.175,-2.007 3.16,-2.003 3.144,-1.999 3.129,-1.995 3.113,-1.99 3.098,-1.986 3.083,-1.981 3.067,-1.977 3.052,-1.972 3.036,-1.968 3.021,-1.963 3.005,-1.958 2.99,-1.954 2.975,-1.949 2.959,-1.945 2.944,-1.94 2.929,-1.935 2.914,-1.93 2.898,-1.926 2.883,-1.921 c -0.015,0.005 -0.03,0.01 -0.045,0.015 l -0.046,0.015 c -0.015,0.005 -0.03,0.01 -0.044,0.015 -0.016,0.005 -0.031,0.011 -0.045,0.016 -0.015,0.005 -0.03,0.01 -0.045,0.016 -0.015,0.005 -0.03,0.011 -0.045,0.016 -0.014,0.005 -0.03,0.011 -0.044,0.016 C 2.554,-1.806 2.54,-1.801 2.525,-1.795 2.51,-1.79 2.496,-1.784 2.481,-1.778 2.466,-1.772 2.452,-1.767 2.437,-1.761 2.422,-1.755 2.408,-1.75 2.394,-1.744 2.379,-1.738 2.365,-1.732 2.35,-1.726 2.335,-1.72 2.321,-1.714 2.307,-1.708 2.292,-1.702 2.278,-1.696 2.264,-1.689 2.25,-1.684 2.235,-1.677 2.221,-1.671 2.207,-1.665 2.192,-1.659 2.178,-1.652 2.165,-1.646 2.15,-1.64 2.136,-1.633 2.122,-1.626 2.108,-1.62 2.094,-1.614 2.08,-1.607 2.066,-1.601 2.052,-1.594 2.038,-1.587 2.024,-1.581 2.01,-1.574 1.996,-1.567 1.982,-1.561 1.968,-1.554 l -0.041,0.02 C 1.913,-1.527 1.899,-1.52 1.886,-1.513 1.872,-1.506 1.858,-1.499 1.845,-1.492 1.831,-1.485 1.818,-1.478 1.804,-1.471 1.791,-1.463 1.777,-1.456 1.764,-1.449 1.75,-1.442 1.737,-1.435 1.723,-1.427 1.71,-1.42 1.696,-1.413 1.683,-1.405 1.67,-1.397 1.656,-1.39 1.643,-1.383 1.63,-1.375 1.617,-1.368 1.604,-1.36 1.59,-1.353 1.577,-1.345 1.564,-1.337 1.551,-1.33 1.538,-1.322 1.524,-1.314 1.512,-1.306 1.499,-1.298 1.486,-1.291 1.473,-1.283 1.46,-1.275 1.447,-1.267 1.434,-1.259 1.421,-1.251 1.408,-1.243 1.396,-1.235 1.382,-1.227 1.37,-1.219 1.357,-1.21 1.344,-1.203 1.332,-1.194 L 1.293,-1.169 C 1.281,-1.161 1.269,-1.153 1.256,-1.145 1.243,-1.136 1.231,-1.127 1.218,-1.119 1.206,-1.111 1.193,-1.102 1.181,-1.094 1.169,-1.085 1.156,-1.077 1.144,-1.068 L 1.107,-1.042 C 1.095,-1.033 1.083,-1.024 1.071,-1.015 L 1.034,-0.989 C 1.022,-0.98 1.01,-0.971 0.998,-0.962 0.986,-0.953 0.974,-0.944 0.962,-0.935 0.95,-0.926 0.938,-0.917 0.927,-0.907 0.915,-0.898 0.903,-0.889 0.891,-0.88 0.879,-0.87 0.868,-0.861 0.856,-0.852 l -0.035,0.028 c -0.011,0.01 -0.023,0.019 -0.035,0.029 -0.011,0.009 -0.023,0.019 -0.034,0.028 -0.012,0.01 -0.023,0.02 -0.034,0.03 -0.011,0.009 -0.023,0.019 -0.034,0.029 -0.012,0.01 -0.023,0.02 -0.034,0.029 -0.011,0.01 -0.023,0.02 -0.034,0.03 -0.011,0.01 -0.022,0.02 -0.033,0.03 -0.011,0.01 -0.022,0.02 -0.033,0.03 -0.011,0.01 -0.022,0.021 -0.032,0.031 -0.011,0.01 -0.022,0.02 -0.033,0.031 l -0.032,0.03 C 0.442,-0.486 0.431,-0.476 0.421,-0.465 0.41,-0.455 0.399,-0.444 0.389,-0.434 L 0.357,-0.402 C 0.347,-0.391 0.336,-0.38 0.326,-0.37 l -0.031,0.033 c -0.01,0.01 -0.02,0.022 -0.03,0.032 -0.011,0.011 -0.021,0.022 -0.031,0.033 -0.01,0.011 -0.02,0.022 -0.03,0.033 -0.01,0.011 -0.02,0.022 -0.03,0.033 l -0.029,0.034 c -0.011,0.011 -0.02,0.023 -0.03,0.034 -0.01,0.012 -0.02,0.023 -0.029,0.034 -0.01,0.012 -0.02,0.023 -0.029,0.035 -0.01,0.011 -0.019,0.023 -0.029,0.034 C 0.019,-0.023 0.009,-0.012 0,0" /></g></g></g></g></svg>
